<?xml version="1.0" standalone="no"?>
<!DOCTYPE svg PUBLIC "-//W3C//DTD SVG 20010904//EN"
 "http://www.w3.org/TR/2001/REC-SVG-20010904/DTD/svg10.dtd">
<svg version="1.0" xmlns="http://www.w3.org/2000/svg"
 width="512.000000pt" height="512.000000pt" viewBox="0 0 512.000000 512.000000"
 preserveAspectRatio="xMidYMid meet">
<metadata>
Created by potrace 1.11, written by Peter Selinger 2001-2013
</metadata>
<g transform="translate(0.000000,512.000000) scale(0.100000,-0.100000)"
fill="#000000" stroke="none">
<path d="M729 4540 c-80 -9 -102 -43 -100 -154 1 -47 -3 -72 -11 -78 -10 -6
-10 -8 0 -8 6 0 12 -11 12 -25 0 -14 -6 -25 -12 -25 -10 0 -10 -2 -1 -8 8 -5
11 -54 11 -159 -1 -84 -4 -150 -8 -148 -4 2 -7 -2 -7 -10 0 -8 3 -12 7 -10 3
2 7 -23 8 -55 1 -54 0 -58 -18 -55 -11 2 -20 -1 -20 -6 0 -5 8 -9 18 -7 12 2
18 -5 20 -26 2 -16 -1 -26 -6 -22 -5 3 -16 -2 -23 -12 -12 -15 -12 -16 2 -5 9
7 19 10 22 6 11 -10 8 -35 -2 -28 -5 3 -13 1 -16 -5 -4 -6 -1 -9 6 -8 7 2 15
-5 17 -16 2 -10 0 -16 -6 -12 -5 3 -16 -2 -23 -12 -12 -15 -12 -16 2 -5 9 7
19 10 22 6 11 -10 8 -35 -2 -28 -5 3 -13 1 -16 -5 -4 -6 -1 -9 6 -8 6 2 13
-10 16 -25 2 -16 0 -26 -5 -24 -4 3 -14 1 -22 -4 -12 -8 -11 -9 5 -7 16 2 21
-3 23 -34 3 -33 1 -37 -17 -33 -12 2 -21 -1 -21 -6 0 -5 8 -9 18 -7 12 2 18
-5 20 -26 2 -16 -1 -26 -6 -22 -5 3 -16 -2 -23 -12 -12 -15 -12 -16 2 -5 9 7
19 10 22 6 11 -10 8 -35 -2 -28 -5 3 -13 1 -16 -5 -4 -6 -1 -9 6 -8 7 2 15 -5
17 -16 2 -10 0 -16 -6 -12 -5 3 -16 -2 -23 -12 -12 -15 -12 -16 2 -5 9 7 19
10 22 6 11 -10 8 -35 -2 -28 -5 3 -13 1 -16 -5 -4 -6 -1 -9 6 -8 6 2 13 -10
16 -25 2 -16 0 -26 -5 -24 -4 3 -14 1 -22 -4 -12 -8 -11 -9 5 -7 19 3 20 -3
23 -171 2 -129 -1 -177 -10 -189 -11 -13 -11 -14 0 -8 11 7 13 -3 10 -52 -1
-33 0 -59 3 -57 6 4 45 -37 42 -45 -1 -3 25 -5 57 -5 36 1 57 -2 53 -8 -4 -6
4 -8 18 -4 13 3 34 8 47 11 16 3 22 1 19 -7 -2 -7 -12 -11 -21 -11 -9 1 -16
-2 -16 -7 0 -14 17 -11 52 11 18 11 38 20 43 20 6 0 2 -5 -7 -11 -23 -13 -23
-26 2 -39 14 -7 20 -7 20 0 0 5 -7 10 -15 10 -8 0 -15 5 -15 10 0 17 25 11 49
-11 12 -12 25 -19 28 -16 2 3 -7 13 -21 22 -14 10 -26 22 -25 29 0 7 2 6 6 -1
6 -16 30 -17 35 -1 3 7 7 5 11 -6 5 -12 3 -15 -6 -10 -7 4 -9 3 -4 -2 11 -11
22 -8 22 8 0 7 20 12 53 12 28 1 52 -2 52 -6 0 -5 5 -8 11 -8 5 0 8 4 5 8 -3
5 1 9 9 9 8 0 16 -6 19 -12 3 -8 -7 -11 -32 -10 -33 3 -34 2 -14 -8 12 -5 22
-14 22 -19 0 -4 5 -8 11 -8 8 0 7 5 -2 16 -11 14 -10 15 6 12 12 -2 20 3 20
11 0 8 11 15 27 15 14 1 25 -1 22 -5 -2 -4 3 -10 12 -13 8 -3 12 -11 8 -17 -4
-7 -3 -9 4 -5 5 3 12 3 15 -1 2 -5 2 -2 1 5 -4 17 11 15 30 -3 20 -20 32 -19
15 1 -11 14 -10 15 6 12 12 -2 20 3 20 11 0 8 11 15 27 15 14 1 25 -1 22 -5
-2 -4 3 -10 12 -13 8 -3 12 -11 8 -17 -4 -7 -3 -9 4 -5 5 3 12 3 15 -1 2 -5 2
-2 1 5 -4 17 11 15 30 -3 20 -20 32 -19 15 1 -11 14 -10 15 6 12 12 -2 20 3
20 11 0 8 11 15 27 15 14 1 25 -1 22 -5 -2 -4 3 -10 12 -13 8 -3 12 -11 8 -17
-4 -7 -3 -9 4 -5 5 3 12 3 15 -1 2 -5 2 -2 1 5 -4 17 11 15 30 -3 20 -20 32
-19 15 1 -11 14 -10 15 6 12 12 -2 20 3 20 11 0 8 11 15 27 15 14 1 25 -1 22
-5 -2 -4 3 -10 12 -13 8 -3 12 -11 8 -17 -4 -7 -3 -9 4 -5 5 3 12 3 15 -1 2
-5 2 -2 1 5 -4 17 11 15 30 -3 20 -20 32 -19 15 1 -11 14 -10 15 6 12 12 -2
20 3 20 11 0 8 11 15 27 15 14 1 25 -1 22 -5 -2 -4 3 -10 12 -13 8 -3 12 -11
8 -17 -4 -7 -3 -9 4 -5 5 3 12 3 15 -1 2 -5 2 -2 1 5 -4 17 11 15 30 -3 20
-20 32 -19 15 1 -11 14 -10 15 6 12 12 -2 20 3 20 11 0 8 11 15 27 15 14 1 25
-1 22 -5 -2 -4 3 -10 12 -13 8 -3 12 -11 8 -17 -4 -7 -3 -9 4 -5 5 3 12 3 15
-1 2 -5 2 -2 1 5 -5 18 10 15 37 -9 13 -11 23 -28 21 -37 -2 -15 -1 -15 7 -2
7 11 4 21 -12 38 -21 23 -21 24 -2 20 11 -1 20 3 20 10 0 6 3 12 8 12 4 0 12
0 19 0 6 0 4 -7 -5 -18 -10 -10 -17 -22 -17 -26 0 -5 13 6 29 23 16 17 35 31
43 31 10 0 9 -3 -2 -10 -8 -5 -15 -19 -15 -31 0 -12 -6 -24 -13 -26 -8 -3 -10
2 -6 14 5 15 4 15 -5 3 -16 -23 5 -37 27 -17 19 18 34 22 30 10 -2 -5 0 -9 5
-10 17 -6 8 13 -12 22 -22 10 -28 25 -10 25 18 0 59 -37 51 -45 -4 -5 -1 -5 7
0 10 6 7 13 -15 30 -23 19 -25 23 -10 28 11 5 15 3 10 -5 -5 -8 -1 -9 12 -4
47 19 60 15 55 -17 -1 -5 3 -6 9 -2 5 3 10 1 10 -6 0 -7 3 -9 6 -6 4 4 1 13
-6 22 -7 8 -9 15 -4 16 5 0 23 2 41 3 17 1 40 9 49 17 16 12 17 12 9 -1 -4 -8
1 -6 12 5 23 23 23 24 27 90 1 28 6 56 10 63 4 7 4 12 -1 12 -4 0 -8 25 -8 55
0 37 4 55 13 55 15 0 16 16 0 26 -7 4 -8 3 -4 -4 4 -7 3 -12 -2 -12 -6 0 -9
11 -8 25 1 19 5 24 21 20 17 -4 16 -3 -2 6 -13 7 -23 17 -23 22 0 6 3 7 7 4 3
-4 13 -1 21 6 13 10 15 9 9 -5 -3 -10 -2 -18 3 -18 13 0 13 27 1 35 -5 3 -12
1 -16 -5 -4 -6 -11 -7 -17 -4 -6 4 -5 10 3 15 9 6 10 12 4 17 -5 4 -10 40 -10
80 0 72 0 73 25 68 23 -4 23 -4 -2 7 -16 6 -28 15 -28 20 0 4 6 5 13 1 8 -5 8
-2 -2 9 -7 9 -10 17 -5 17 13 0 41 -20 29 -20 -13 -1 36 -40 50 -40 6 0 -3 9
-20 20 -16 11 -25 20 -20 20 6 0 -3 12 -20 26 -16 14 -24 23 -17 19 6 -3 12
-1 12 4 0 6 -3 11 -7 11 -5 0 -8 25 -8 55 0 50 2 54 20 50 18 -5 18 -4 -1 6
-29 15 -28 61 1 54 17 -4 16 -3 -2 6 -13 7 -23 17 -23 22 0 6 3 7 7 4 3 -4 13
-1 21 6 13 10 15 9 9 -5 -3 -10 -2 -18 3 -18 13 0 13 27 1 35 -5 3 -12 1 -16
-5 -4 -6 -11 -7 -17 -4 -6 4 -5 10 3 15 9 6 10 12 4 17 -5 4 -10 40 -10 80 0
72 0 73 25 68 23 -4 23 -4 -2 7 -16 6 -28 15 -28 20 0 4 6 5 13 1 8 -5 8 -2
-2 9 -7 9 -10 17 -5 17 13 0 41 -20 29 -20 -13 -1 36 -40 50 -40 6 0 -3 9 -20
20 -16 11 -25 20 -20 20 6 0 -3 12 -20 26 -16 14 -24 23 -17 19 6 -3 12 -1 12
4 0 6 -3 11 -7 11 -5 0 -8 25 -8 55 0 50 2 54 20 50 18 -5 18 -4 -1 6 -29 15
-28 61 1 54 17 -4 16 -3 -2 6 -13 7 -23 17 -23 22 0 6 3 7 7 4 3 -4 13 -1 21
6 13 10 15 9 9 -5 -3 -10 -2 -18 3 -18 13 0 13 27 1 35 -5 3 -12 1 -16 -5 -4
-6 -11 -7 -17 -4 -6 4 -5 10 3 15 9 6 10 12 4 17 -6 4 -10 13 -9 20 1 6 2 21
3 33 1 13 6 18 14 14 6 -4 4 0 -5 8 -23 18 -23 22 2 24 13 1 18 -2 14 -9 -4
-7 -2 -8 5 -4 15 10 3 29 -15 22 -7 -3 -16 -1 -19 4 -4 6 -1 10 5 10 6 0 8 5
3 13 -14 22 -14 49 -1 41 8 -5 7 0 -2 11 -14 17 -13 18 4 11 18 -6 19 -5 5 11
-11 13 -15 37 -14 83 2 85 -11 123 -47 145 -28 16 -88 17 -836 19 -444 0 -828
-1 -853 -4z m541 -1842 c0 -4 5 -8 11 -8 5 0 8 4 5 8 -3 5 1 9 9 9 8 0 16 -5
18 -12 3 -7 -10 -11 -36 -10 -40 1 -66 21 -27 21 11 0 20 -4 20 -8z m160 0 c0
-4 5 -8 11 -8 5 0 8 4 5 8 -3 5 1 9 9 9 8 0 16 -5 18 -12 3 -7 -10 -11 -36
-10 -40 1 -66 21 -27 21 11 0 20 -4 20 -8z m160 0 c0 -4 5 -8 11 -8 5 0 8 4 5
8 -3 5 1 9 9 9 8 0 16 -5 18 -12 3 -7 -10 -11 -36 -10 -40 1 -66 21 -27 21 11
0 20 -4 20 -8z m160 0 c0 -4 5 -8 11 -8 5 0 8 4 5 8 -3 5 1 9 9 9 8 0 16 -5
18 -12 3 -7 -10 -11 -36 -10 -40 1 -66 21 -27 21 11 0 20 -4 20 -8z m160 0 c0
-4 5 -8 11 -8 5 0 8 4 5 8 -3 5 1 9 9 9 8 0 16 -5 18 -12 3 -7 -10 -11 -36
-10 -40 1 -66 21 -27 21 11 0 20 -4 20 -8z m160 0 c0 -4 5 -8 11 -8 5 0 8 4 5
8 -3 5 1 9 9 9 8 0 16 -5 18 -12 3 -7 -10 -11 -36 -10 -40 1 -66 21 -27 21 11
0 20 -4 20 -8z"/>
<path d="M2844 4540 c-68 -3 -117 -10 -126 -18 -9 -7 -24 -10 -34 -6 -15 5
-16 4 -5 -4 11 -8 12 -14 3 -25 -7 -8 -12 -56 -13 -120 -1 -58 -6 -104 -11
-101 -4 3 -8 0 -8 -5 0 -6 4 -11 8 -11 12 0 10 -120 -2 -121 -6 -1 -18 -1 -26
0 -13 2 -13 0 -1 -8 8 -5 21 -6 30 -3 14 5 14 4 1 -13 -8 -10 -10 -16 -4 -12
7 4 12 -2 12 -18 0 -13 -7 -26 -14 -29 -9 -4 -13 2 -11 16 2 25 -21 31 -48 12
-10 -8 -14 -14 -9 -14 6 0 14 3 18 7 16 16 35 10 33 -10 -1 -17 3 -21 17 -19
18 3 18 2 5 -14 -7 -10 -9 -15 -3 -11 7 4 11 -13 10 -53 -1 -52 -3 -59 -18
-54 -10 3 -18 1 -18 -5 0 -6 3 -10 8 -10 22 4 32 -3 32 -21 0 -11 -6 -20 -12
-20 -9 0 -9 -3 -2 -8 6 -4 10 -20 10 -35 0 -20 -4 -26 -15 -22 -14 4 -14 4 -1
-7 17 -14 21 -74 7 -95 -5 -8 -4 -13 2 -13 15 0 14 -33 -1 -49 -8 -8 -8 -11
-2 -8 7 4 12 -3 12 -18 0 -13 -7 -26 -15 -29 -11 -5 -13 0 -8 17 5 19 4 20 -5
4 -14 -22 -5 -38 18 -30 15 6 16 5 2 -12 -8 -10 -10 -16 -4 -12 7 4 11 -13 10
-53 -1 -52 -3 -59 -18 -54 -10 3 -18 1 -18 -5 0 -6 3 -10 8 -10 22 4 32 -3 32
-21 0 -11 -6 -20 -12 -20 -9 0 -9 -3 -2 -8 6 -4 10 -20 10 -35 0 -20 -4 -26
-15 -22 -14 4 -14 4 -1 -7 17 -14 21 -74 7 -95 -5 -8 -4 -13 2 -13 15 0 14
-33 -1 -49 -8 -8 -8 -11 -2 -8 7 4 12 -3 12 -18 0 -13 -7 -26 -15 -29 -11 -5
-13 0 -8 17 5 19 4 20 -5 4 -14 -22 -5 -38 18 -30 15 6 16 5 2 -12 -8 -10 -10
-16 -5 -13 7 4 11 -15 12 -53 1 -34 -2 -57 -8 -54 -5 4 -9 1 -9 -4 0 -6 4 -11
9 -11 11 0 9 -19 -3 -39 -6 -9 -5 -12 1 -8 7 4 10 -22 10 -73 0 -44 -5 -77
-10 -73 -4 3 -3 -5 5 -16 11 -18 11 -23 -2 -31 -8 -5 -10 -10 -5 -10 6 0 11
-9 12 -20 1 -11 -2 -18 -8 -15 -5 4 -9 1 -9 -4 0 -6 4 -11 8 -11 5 0 8 -34 9
-75 0 -41 -4 -72 -8 -69 -5 3 -9 0 -9 -5 0 -6 4 -11 8 -11 4 0 8 -38 9 -85 1
-49 -3 -83 -8 -79 -5 3 -9 0 -9 -5 0 -6 4 -11 9 -11 11 0 9 -19 -3 -39 -6 -9
-5 -12 2 -7 7 4 10 -5 9 -29 -2 -26 -6 -34 -17 -30 -13 4 -13 3 0 -7 22 -18
20 -86 -2 -102 -10 -7 -18 -17 -18 -21 0 -4 7 -2 15 5 9 7 18 10 22 6 4 -3 -2
-13 -13 -21 -19 -15 -19 -15 1 -8 18 6 19 5 5 -12 -8 -10 -10 -16 -4 -12 14 8
13 -51 0 -72 -6 -9 -5 -12 0 -8 14 8 14 -226 0 -235 -6 -5 -7 -8 -1 -8 13 0
14 -129 1 -149 -6 -9 -5 -12 1 -8 13 8 12 -52 -1 -72 -6 -9 -5 -12 0 -8 14 8
14 -226 0 -235 -6 -5 -7 -8 -1 -8 13 0 14 -129 1 -149 -6 -9 -5 -12 1 -8 13 8
12 -52 -1 -72 -6 -9 -5 -12 1 -8 13 8 12 -82 -1 -102 -6 -9 -5 -12 1 -8 7 4
10 -22 9 -79 -1 -58 3 -89 12 -96 6 -6 12 -16 12 -22 0 -17 50 -35 103 -37 26
-1 47 -7 47 -13 0 -8 2 -8 8 0 4 6 24 11 45 11 29 0 37 -4 32 -15 -5 -13 -3
-13 11 -1 20 16 86 19 81 4 -2 -5 -13 -9 -23 -7 -15 2 -16 1 -4 -7 8 -5 19 -6
25 -2 19 14 54 10 58 -7 4 -15 5 -15 6 1 0 10 5 15 11 12 6 -3 7 1 4 9 -3 9
-1 16 5 16 6 0 11 -5 11 -11 0 -6 5 -7 13 -2 13 9 81 14 73 5 -7 -6 24 -31 38
-32 6 0 1 6 -10 14 -11 8 -15 18 -10 23 5 4 11 2 13 -5 4 -10 8 -10 20 0 14
11 15 10 9 -10 -5 -14 -3 -22 4 -22 6 0 8 4 5 10 -3 5 1 10 9 10 9 0 16 -4 16
-10 0 -5 6 -10 13 -10 6 1 2 9 -11 19 l-22 19 55 -1 c30 -1 55 -3 55 -5 0 -2
-5 -13 -12 -25 -13 -24 -20 -52 -11 -43 4 3 13 0 22 -6 10 -8 9 -4 -3 9 -17
20 -17 23 -2 29 9 3 13 10 10 15 -8 13 10 11 25 -4 11 -9 13 -9 7 0 -4 7 -2
13 4 13 6 0 9 4 5 9 -9 16 69 7 82 -9 10 -13 13 -13 30 1 20 18 53 21 53 6 0
-5 7 -3 16 4 15 12 16 11 10 -9 -5 -14 -3 -22 4 -22 6 0 8 5 5 10 -3 6 -1 10
5 10 6 0 8 5 5 10 -11 18 7 11 25 -10 15 -18 19 -18 24 -5 3 9 2 13 -3 10 -5
-3 -12 -1 -15 4 -4 6 11 9 34 8 27 -1 39 -6 36 -14 -3 -8 1 -10 11 -6 12 5 14
3 8 -8 -6 -11 -5 -12 6 -1 18 17 27 15 32 -5 4 -17 5 -17 6 0 0 10 5 15 11 12
6 -3 7 1 4 9 -3 9 -1 16 5 16 11 0 15 -12 12 -40 -1 -11 2 -10 10 3 10 17 12
17 28 2 16 -14 20 -14 31 0 7 8 16 12 21 9 5 -3 9 0 9 5 0 14 -17 14 -26 0 -4
-8 -9 -7 -15 2 -7 11 -9 11 -9 1 0 -7 -4 -10 -10 -7 -24 15 -5 20 65 21 42 1
75 -3 75 -9 0 -5 -8 -6 -17 -2 -13 4 -15 3 -7 -5 11 -11 47 -3 40 9 -3 4 11 7
30 7 19 0 33 -5 30 -11 -2 -5 -9 -9 -15 -8 -6 2 -11 -2 -11 -7 0 -13 13 -13
27 1 8 8 15 5 25 -10 l14 -20 13 21 c7 11 8 17 3 14 -6 -3 -13 0 -15 6 -4 10
-6 10 -6 0 -1 -7 -5 -10 -11 -7 -20 12 -9 21 25 21 24 0 34 -4 31 -13 -3 -7 1
-10 9 -6 8 3 13 8 11 12 -8 12 99 9 106 -3 6 -8 8 -8 8 2 0 6 7 12 15 12 8 0
15 -6 15 -12 0 -9 3 -9 8 -3 4 6 18 11 32 10 14 0 37 8 51 17 14 10 29 15 33
11 3 -3 6 -1 6 6 0 7 4 10 9 6 5 -3 13 0 17 6 4 8 3 9 -4 5 -7 -4 -12 -3 -12
3 0 5 4 12 9 15 5 3 7 16 3 28 -3 14 -1 19 6 14 6 -3 14 -2 17 4 4 6 1 9 -7 8
-17 -4 -21 131 -5 151 9 12 9 13 -1 7 -16 -10 -13 25 3 36 6 5 6 8 -1 8 -15 0
-15 51 0 69 8 12 8 13 -1 7 -16 -9 -16 -1 -2 26 8 15 8 19 0 14 -6 -4 -11 0
-11 8 0 9 6 16 13 16 9 0 9 2 -1 9 -15 9 -13 81 3 81 5 0 3 5 -5 10 -13 9 -13
11 0 20 10 6 11 10 3 10 -8 0 -13 15 -13 41 0 29 3 38 13 33 9 -6 9 -4 1 7
-15 18 -16 82 -2 73 6 -4 6 1 -1 14 -14 27 -14 35 1 26 8 -5 8 -3 2 7 -13 21
-14 161 0 178 8 11 8 13 -1 8 -8 -5 -11 0 -10 13 1 11 6 19 12 16 7 -2 12 2
12 9 0 7 -5 11 -12 9 -7 -3 -12 14 -13 51 0 31 3 55 9 55 6 0 7 -6 3 -12 -4
-7 -3 -9 1 -5 14 12 14 36 1 31 -9 -3 -13 11 -14 51 0 30 4 55 9 55 6 0 7 -6
3 -12 -4 -7 -3 -9 1 -5 14 12 14 36 0 31 -8 -3 -12 4 -12 20 0 16 4 23 11 19
8 -5 8 -3 0 8 -15 18 -16 82 -2 73 6 -4 6 1 -1 14 -14 27 -14 35 2 26 9 -6 9
-4 1 7 -13 17 -13 217 0 238 6 10 6 12 -2 7 -15 -9 -15 -1 -1 26 8 15 8 19 0
14 -6 -4 -11 0 -11 8 0 9 6 16 13 16 9 0 9 2 -1 9 -15 9 -13 81 3 81 5 0 3 5
-5 10 -13 9 -13 11 0 20 10 6 11 10 3 10 -8 0 -13 15 -13 41 0 29 3 38 13 33
9 -6 9 -4 1 7 -15 18 -16 82 -2 73 6 -4 6 1 -1 14 -14 27 -14 35 1 26 8 -5 8
-3 2 7 -13 21 -14 161 0 178 8 11 8 13 -1 8 -8 -5 -11 0 -10 13 1 11 6 19 12
16 7 -2 12 2 12 9 0 7 -5 11 -12 9 -7 -3 -12 14 -13 51 0 31 3 55 9 55 6 0 7
-6 3 -12 -4 -7 -3 -9 1 -5 14 12 14 36 1 31 -9 -3 -13 11 -14 51 0 30 4 55 9
55 6 0 7 -6 3 -12 -4 -7 -3 -9 1 -5 14 12 14 36 0 31 -8 -3 -12 4 -12 20 0 16
4 23 11 19 8 -5 8 -3 0 8 -15 18 -16 82 -2 73 6 -4 6 1 -1 14 -14 27 -14 35 2
26 9 -6 9 -4 1 7 -13 17 -13 217 0 238 6 10 6 12 -2 7 -15 -9 -15 -1 -1 26 8
15 8 19 0 14 -6 -4 -11 0 -11 8 0 9 6 16 13 16 9 0 9 2 -1 9 -15 9 -13 81 3
81 5 0 3 5 -5 10 -13 9 -13 11 0 20 10 6 11 10 3 10 -8 0 -13 15 -13 41 0 29
3 38 13 33 9 -6 9 -4 1 7 -15 18 -16 82 -2 73 6 -4 6 1 -1 14 -14 27 -14 35 1
26 8 -5 8 -3 2 7 -13 21 -13 189 0 189 7 0 7 3 1 8 -16 11 -19 46 -3 36 10 -6
10 -5 2 7 -16 21 -17 142 -1 133 9 -6 9 -5 0 7 -6 8 -10 37 -10 66 1 28 -1 49
-5 46 -5 -2 -8 0 -8 5 0 14 -36 52 -49 52 -7 0 -10 3 -8 8 6 8 -1392 10 -1569
2z m206 -3920 c0 -5 -2 -10 -4 -10 -3 0 -8 5 -11 10 -3 6 -1 10 4 10 6 0 11
-4 11 -10z m30 0 c0 -5 -2 -10 -4 -10 -3 0 -8 5 -11 10 -3 6 -1 10 4 10 6 0
11 -4 11 -10z m330 0 c0 -5 -2 -10 -4 -10 -3 0 -8 5 -11 10 -3 6 -1 10 4 10 6
0 11 -4 11 -10z m120 0 c0 -5 -4 -10 -10 -10 -5 0 -10 5 -10 10 0 6 5 10 10
10 6 0 10 -4 10 -10z m240 0 c0 -5 -2 -10 -4 -10 -3 0 -8 5 -11 10 -3 6 -1 10
4 10 6 0 11 -4 11 -10z m30 0 c0 -5 -2 -10 -4 -10 -3 0 -8 5 -11 10 -3 6 -1
10 4 10 6 0 11 -4 11 -10z"/>
<path d="M596 4473 c-6 -14 -5 -15 5 -6 7 7 10 15 7 18 -3 3 -9 -2 -12 -12z"/>
<path d="M2534 4422 c4 -3 14 -7 22 -8 9 -1 13 0 10 4 -4 3 -14 7 -22 8 -9 1
-13 0 -10 -4z"/>
<path d="M590 4366 c0 -2 7 -7 16 -10 8 -3 12 -2 9 4 -6 10 -25 14 -25 6z"/>
<path d="M2570 4360 c0 -5 5 -10 11 -10 5 0 7 5 4 10 -3 6 -8 10 -11 10 -2 0
-4 -4 -4 -10z"/>
<path d="M2496 4327 c3 -8 11 -14 19 -14 20 0 19 4 -5 17 -15 8 -18 8 -14 -3z"/>
<path d="M570 4300 c0 -5 5 -10 11 -10 5 0 7 5 4 10 -3 6 -8 10 -11 10 -2 0
-4 -4 -4 -10z"/>
<path d="M2505 4281 c6 -18 4 -22 -6 -16 -8 5 -11 4 -6 0 4 -5 16 -9 27 -10
19 -2 19 -1 3 19 -10 12 -20 23 -22 26 -2 3 0 -6 4 -19z"/>
<path d="M2570 4296 c0 -2 8 -10 18 -17 15 -13 16 -12 3 4 -13 16 -21 21 -21
13z"/>
<path d="M2475 4240 c-3 -5 -1 -10 4 -10 6 0 11 5 11 10 0 6 -2 10 -4 10 -3 0
-8 -4 -11 -10z"/>
<path d="M2546 4241 c-3 -4 6 -7 19 -7 14 0 22 2 19 5 -8 8 -34 10 -38 2z"/>
<path d="M2630 4245 c0 -5 5 -17 10 -25 5 -8 10 -10 10 -5 0 6 -5 17 -10 25
-5 8 -10 11 -10 5z"/>
<path d="M2504 4224 c-18 -14 -18 -15 4 -4 12 6 22 13 22 15 0 8 -5 6 -26 -11z"/>
<path d="M601 4208 c5 -10 11 -18 12 -18 2 0 3 8 3 18 0 10 -6 19 -13 19 -8 0
-9 -6 -2 -19z"/>
<path d="M2615 4220 c6 -10 4 -12 -11 -6 -15 6 -17 5 -6 -5 9 -9 15 -10 23 -2
8 8 7 13 -2 18 -8 6 -10 4 -4 -5z"/>
<path d="M2630 4180 c0 -5 5 -10 10 -10 6 0 10 5 10 10 0 6 -4 10 -10 10 -5 0
-10 -4 -10 -10z"/>
<path d="M611 4164 c0 -11 3 -14 6 -6 3 7 2 16 -1 19 -3 4 -6 -2 -5 -13z"/>
<path d="M2597 4165 c3 -8 9 -12 14 -9 12 7 11 11 -5 17 -10 4 -13 1 -9 -8z"/>
<path d="M2520 4150 c6 -11 12 -20 14 -20 2 0 2 9 -1 20 -3 11 -9 20 -15 20
-5 0 -4 -9 2 -20z"/>
<path d="M575 4140 c3 -5 8 -10 11 -10 2 0 4 5 4 10 0 6 -5 10 -11 10 -5 0 -7
-4 -4 -10z"/>
<path d="M2487 4130 c-9 -11 -13 -20 -7 -20 5 0 14 9 20 20 6 11 9 20 8 20 -2
0 -11 -9 -21 -20z"/>
<path d="M4500 4146 c0 -2 8 -10 18 -17 15 -13 16 -12 3 4 -13 16 -21 21 -21
13z"/>
<path d="M2595 4110 c-3 -5 -1 -10 4 -10 6 0 11 5 11 10 0 6 -2 10 -4 10 -3 0
-8 -4 -11 -10z"/>
<path d="M2495 4099 c-4 -6 -4 -13 -1 -16 3 -4 6 -1 6 6 0 7 5 9 12 5 7 -4 8
-3 4 4 -9 15 -13 15 -21 1z"/>
<path d="M2546 4097 c3 -10 9 -15 12 -12 3 3 0 11 -7 18 -10 9 -11 8 -5 -6z"/>
<path d="M2516 4067 c3 -10 9 -15 12 -12 3 3 0 11 -7 18 -10 9 -11 8 -5 -6z"/>
<path d="M4549 4043 c-13 -16 -12 -17 4 -4 16 13 21 21 13 21 -2 0 -10 -8 -17
-17z"/>
<path d="M574 4038 c-3 -5 0 -7 8 -6 7 2 12 -4 10 -12 -2 -8 0 -11 4 -7 14 13
12 34 -3 34 -7 0 -16 -4 -19 -9z"/>
<path d="M2590 4040 c0 -5 5 -10 11 -10 5 0 7 5 4 10 -3 6 -8 10 -11 10 -2 0
-4 -4 -4 -10z"/>
<path d="M2575 4020 c5 -9 1 -10 -16 -6 -21 6 -22 6 -6 -5 13 -7 22 -8 29 -1
6 6 6 12 -3 17 -8 6 -10 4 -4 -5z"/>
<path d="M4507 4019 c7 -9 10 -19 6 -22 -3 -4 -1 -7 5 -7 17 0 15 16 -5 31
-16 12 -17 12 -6 -2z"/>
<path d="M2516 4007 c3 -10 9 -15 12 -12 3 3 0 11 -7 18 -10 9 -11 8 -5 -6z"/>
<path d="M2620 3994 c0 -9 -5 -12 -12 -8 -7 4 -8 3 -4 -4 10 -16 14 -15 26 8
7 14 7 20 0 20 -5 0 -10 -7 -10 -16z"/>
<path d="M596 3981 c-3 -5 2 -15 12 -22 15 -12 16 -12 5 2 -7 9 -10 19 -6 22
3 4 4 7 0 7 -3 0 -8 -4 -11 -9z"/>
<path d="M2494 3979 c-4 -7 -3 -9 4 -5 5 3 13 0 15 -6 4 -9 6 -10 6 -1 1 17
-16 25 -25 12z"/>
<path d="M2630 3966 c-7 -14 -18 -22 -26 -19 -8 3 -14 3 -14 0 0 -3 6 -7 14
-10 14 -5 53 39 43 49 -2 2 -9 -7 -17 -20z"/>
<path d="M4513 3965 c0 -8 4 -12 9 -9 5 3 6 10 3 15 -9 13 -12 11 -12 -6z"/>
<path d="M2535 3951 c-3 -5 0 -13 6 -17 8 -5 9 -3 4 6 -6 9 -1 10 16 5 19 -5
21 -4 9 4 -19 13 -27 14 -35 2z"/>
<path d="M2510 3945 c0 -5 5 -17 10 -25 5 -8 10 -10 10 -5 0 6 -5 17 -10 25
-5 8 -10 11 -10 5z"/>
<path d="M2636 3933 c-6 -14 -5 -15 5 -6 7 7 10 15 7 18 -3 3 -9 -2 -12 -12z"/>
<path d="M2480 3919 c0 -5 5 -7 10 -4 6 3 10 8 10 11 0 2 -4 4 -10 4 -5 0 -10
-5 -10 -11z"/>
<path d="M575 3900 c3 -5 8 -10 11 -10 2 0 4 5 4 10 0 6 -5 10 -11 10 -5 0 -7
-4 -4 -10z"/>
<path d="M2486 3889 c-9 -11 -11 -19 -6 -19 6 0 13 6 16 14 3 8 13 12 25 9 10
-3 19 -3 19 0 0 15 -40 12 -54 -4z"/>
<path d="M4509 3896 c5 -6 7 -19 5 -29 -1 -11 0 -16 4 -12 12 12 9 52 -4 52
-9 0 -10 -5 -5 -11z"/>
<path d="M2610 3885 c0 -8 4 -15 10 -15 5 0 7 7 4 15 -4 8 -8 15 -10 15 -2 0
-4 -7 -4 -15z"/>
<path d="M2557 3876 c-17 -13 -16 -14 2 -19 15 -3 18 -1 14 11 -5 11 -3 13 7
7 9 -5 11 -4 6 3 -9 14 -7 14 -29 -2z"/>
<path d="M2632 3864 c-7 -8 -8 -14 -3 -14 10 0 25 19 20 25 -2 1 -10 -3 -17
-11z"/>
<path d="M2510 3859 c0 -5 5 -7 10 -4 6 3 10 8 10 11 0 2 -4 4 -10 4 -5 0 -10
-5 -10 -11z"/>
<path d="M2599 3858 c-5 -18 -6 -38 -1 -34 7 8 12 36 6 36 -2 0 -4 -1 -5 -2z"/>
<path d="M596 3842 c-3 -5 1 -9 9 -9 8 0 12 4 9 9 -3 4 -7 8 -9 8 -2 0 -6 -4
-9 -8z"/>
<path d="M2513 3825 c0 -8 4 -15 9 -15 4 0 8 4 8 9 0 6 -4 12 -8 15 -5 3 -9
-1 -9 -9z"/>
<path d="M2616 3821 c-3 -4 6 -6 19 -3 14 2 25 6 25 8 0 8 -39 4 -44 -5z"/>
<path d="M4514 3805 c0 -13 3 -22 7 -19 8 4 6 30 -2 38 -3 3 -5 -5 -5 -19z"/>
<path d="M2546 3796 c6 -15 4 -17 -6 -11 -9 6 -11 4 -5 -4 5 -9 10 -10 18 -2
8 8 7 14 -2 24 -10 10 -11 8 -5 -7z"/>
<path d="M2580 3800 c8 -5 20 -10 25 -10 6 0 3 5 -5 10 -8 5 -19 10 -25 10 -5
0 -3 -5 5 -10z"/>
<path d="M2615 3780 c-3 -5 -2 -17 3 -26 8 -15 10 -15 15 0 5 12 3 15 -5 10
-8 -5 -9 -2 -5 9 7 19 2 23 -8 7z"/>
<path d="M2564 3759 c-3 -6 -1 -16 5 -22 9 -9 10 -7 5 7 -6 15 -4 17 6 11 9
-5 11 -4 6 3 -9 15 -13 15 -22 1z"/>
<path d="M2596 3734 c-3 -9 -2 -22 2 -31 6 -10 9 -5 9 16 0 35 -2 38 -11 15z"/>
<path d="M2632 3730 c-18 -29 -15 -38 4 -12 9 13 14 25 12 27 -2 2 -9 -5 -16
-15z"/>
<path d="M2475 3730 c3 -5 8 -10 11 -10 2 0 4 5 4 10 0 6 -5 10 -11 10 -5 0
-7 -4 -4 -10z"/>
<path d="M2510 3725 c0 -8 2 -15 4 -15 2 0 6 7 10 15 3 8 1 15 -4 15 -6 0 -10
-7 -10 -15z"/>
<path d="M4513 3715 c0 -8 4 -12 9 -9 5 3 6 10 3 15 -9 13 -12 11 -12 -6z"/>
<path d="M2561 3701 c-8 -5 -9 -11 -3 -15 5 -3 12 1 16 9 6 17 6 18 -13 6z"/>
<path d="M2636 3693 c-6 -14 -5 -15 5 -6 7 7 10 15 7 18 -3 3 -9 -2 -12 -12z"/>
<path d="M2517 3680 c3 -11 9 -22 13 -25 5 -3 6 4 3 15 -3 11 -9 22 -13 25 -5
3 -6 -4 -3 -15z"/>
<path d="M2480 3679 c0 -5 5 -7 10 -4 6 3 10 8 10 11 0 2 -4 4 -10 4 -5 0 -10
-5 -10 -11z"/>
<path d="M4513 3675 c0 -8 4 -12 9 -9 4 3 8 9 8 15 0 5 -4 9 -8 9 -5 0 -9 -7
-9 -15z"/>
<path d="M2487 3650 c-9 -11 -13 -20 -7 -20 5 0 14 9 20 20 6 11 9 20 8 20 -2
0 -11 -9 -21 -20z"/>
<path d="M2590 3661 c0 -10 29 -36 34 -30 1 2 -6 12 -16 22 -10 9 -18 13 -18
8z"/>
<path d="M2630 3660 c0 -6 7 -10 15 -10 8 0 15 2 15 4 0 2 -7 6 -15 10 -8 3
-15 1 -15 -4z"/>
<path d="M4520 3640 c-9 -6 -10 -10 -3 -10 6 0 15 5 18 10 8 12 4 12 -15 0z"/>
<path d="M4556 3633 c-6 -14 -5 -15 5 -6 7 7 10 15 7 18 -3 3 -9 -2 -12 -12z"/>
<path d="M2495 3619 c-4 -6 -4 -13 -1 -16 3 -4 6 -1 6 6 0 7 5 9 12 5 7 -4 8
-3 4 4 -9 15 -13 15 -21 1z"/>
<path d="M2547 3614 c2 -7 11 -10 19 -7 19 7 18 10 -5 16 -13 3 -18 1 -14 -9z"/>
<path d="M2595 3611 c4 -8 2 -17 -6 -22 -9 -6 -10 -9 -2 -9 19 0 27 21 13 33
-10 9 -11 9 -5 -2z"/>
<path d="M2516 3587 c3 -10 9 -15 12 -12 3 3 0 11 -7 18 -10 9 -11 8 -5 -6z"/>
<path d="M2590 3560 c0 -5 5 -10 11 -10 5 0 7 5 4 10 -3 6 -8 10 -11 10 -2 0
-4 -4 -4 -10z"/>
<path d="M2575 3540 c5 -9 1 -10 -16 -6 -21 6 -22 6 -6 -5 13 -7 22 -8 29 -1
6 6 6 12 -3 17 -8 6 -10 4 -4 -5z"/>
<path d="M2516 3527 c3 -10 9 -15 12 -12 3 3 0 11 -7 18 -10 9 -11 8 -5 -6z"/>
<path d="M2620 3514 c0 -9 -5 -12 -12 -8 -7 4 -8 3 -4 -4 10 -16 14 -15 26 8
7 14 7 20 0 20 -5 0 -10 -7 -10 -16z"/>
<path d="M2494 3499 c-4 -7 -3 -9 4 -5 5 3 13 0 15 -6 4 -9 6 -10 6 -1 1 17
-16 25 -25 12z"/>
<path d="M2630 3486 c-7 -14 -18 -22 -26 -19 -8 3 -14 3 -14 0 0 -3 6 -7 14
-10 14 -5 53 39 43 49 -2 2 -9 -7 -17 -20z"/>
<path d="M4494 3498 c-4 -7 -4 -10 1 -6 4 4 15 2 24 -5 14 -11 14 -10 2 6 -16
20 -18 21 -27 5z"/>
<path d="M2535 3471 c-3 -5 0 -13 6 -17 8 -5 9 -3 4 6 -6 9 -1 10 16 5 19 -5
21 -4 9 4 -19 13 -27 14 -35 2z"/>
<path d="M2510 3465 c0 -5 5 -17 10 -25 5 -8 10 -10 10 -5 0 6 -5 17 -10 25
-5 8 -10 11 -10 5z"/>
<path d="M2636 3453 c-6 -14 -5 -15 5 -6 7 7 10 15 7 18 -3 3 -9 -2 -12 -12z"/>
<path d="M4495 3451 c-3 -5 -2 -12 3 -15 5 -3 9 1 9 9 0 17 -3 19 -12 6z"/>
<path d="M2480 3439 c0 -5 5 -7 10 -4 6 3 10 8 10 11 0 2 -4 4 -10 4 -5 0 -10
-5 -10 -11z"/>
<path d="M2486 3409 c-9 -11 -11 -19 -6 -19 6 0 13 6 16 14 3 8 13 12 25 9 10
-3 19 -3 19 0 0 15 -40 12 -54 -4z"/>
<path d="M2610 3405 c0 -8 4 -15 10 -15 5 0 7 7 4 15 -4 8 -8 15 -10 15 -2 0
-4 -7 -4 -15z"/>
<path d="M4549 3403 c-13 -16 -12 -17 4 -4 9 7 17 15 17 17 0 8 -8 3 -21 -13z"/>
<path d="M2557 3396 c-17 -13 -16 -14 2 -19 15 -3 18 -1 14 11 -5 11 -3 13 7
7 9 -5 11 -4 6 3 -9 14 -7 14 -29 -2z"/>
<path d="M2632 3384 c-7 -8 -8 -14 -3 -14 10 0 25 19 20 25 -2 1 -10 -3 -17
-11z"/>
<path d="M2510 3379 c0 -5 5 -7 10 -4 6 3 10 8 10 11 0 2 -4 4 -10 4 -5 0 -10
-5 -10 -11z"/>
<path d="M4507 3379 c7 -9 10 -19 6 -22 -3 -4 -1 -7 5 -7 17 0 15 16 -5 31
-16 12 -17 12 -6 -2z"/>
<path d="M2599 3378 c-5 -18 -6 -38 -1 -34 7 8 12 36 6 36 -2 0 -4 -1 -5 -2z"/>
<path d="M2513 3345 c0 -8 4 -15 9 -15 4 0 8 4 8 9 0 6 -4 12 -8 15 -5 3 -9
-1 -9 -9z"/>
<path d="M2616 3341 c-3 -4 6 -6 19 -3 14 2 25 6 25 8 0 8 -39 4 -44 -5z"/>
<path d="M4513 3325 c0 -8 4 -12 9 -9 5 3 6 10 3 15 -9 13 -12 11 -12 -6z"/>
<path d="M2546 3316 c6 -15 4 -17 -6 -11 -9 6 -11 4 -5 -4 5 -9 10 -10 18 -2
8 8 7 14 -2 24 -10 10 -11 8 -5 -7z"/>
<path d="M2580 3320 c8 -5 20 -10 25 -10 6 0 3 5 -5 10 -8 5 -19 10 -25 10 -5
0 -3 -5 5 -10z"/>
<path d="M2615 3300 c-3 -5 -2 -17 3 -26 8 -15 10 -15 15 0 5 12 3 15 -5 10
-8 -5 -9 -2 -5 9 7 19 2 23 -8 7z"/>
<path d="M2564 3279 c-3 -6 -1 -16 5 -22 9 -9 10 -7 5 7 -6 15 -4 17 6 11 9
-5 11 -4 6 3 -9 15 -13 15 -22 1z"/>
<path d="M2596 3254 c-3 -9 -2 -22 2 -31 6 -10 9 -5 9 16 0 35 -2 38 -11 15z"/>
<path d="M2632 3250 c-18 -29 -15 -38 4 -12 9 13 14 25 12 27 -2 2 -9 -5 -16
-15z"/>
<path d="M4506 3260 c6 -8 10 -23 8 -33 -1 -11 0 -16 4 -13 12 13 10 36 -6 48
-15 11 -15 11 -6 -2z"/>
<path d="M2475 3250 c3 -5 8 -10 11 -10 2 0 4 5 4 10 0 6 -5 10 -11 10 -5 0
-7 -4 -4 -10z"/>
<path d="M2510 3245 c0 -8 2 -15 4 -15 2 0 6 7 10 15 3 8 1 15 -4 15 -6 0 -10
-7 -10 -15z"/>
<path d="M2561 3221 c-8 -5 -9 -11 -3 -15 5 -3 12 1 16 9 6 17 6 18 -13 6z"/>
<path d="M2636 3213 c-6 -14 -5 -15 5 -6 7 7 10 15 7 18 -3 3 -9 -2 -12 -12z"/>
<path d="M2517 3200 c3 -11 9 -22 13 -25 5 -3 6 4 3 15 -3 11 -9 22 -13 25 -5
3 -6 -4 -3 -15z"/>
<path d="M2480 3199 c0 -5 5 -7 10 -4 6 3 10 8 10 11 0 2 -4 4 -10 4 -5 0 -10
-5 -10 -11z"/>
<path d="M575 3180 c3 -5 8 -10 11 -10 2 0 4 5 4 10 0 6 -5 10 -11 10 -5 0 -7
-4 -4 -10z"/>
<path d="M2487 3170 c-9 -11 -13 -20 -7 -20 5 0 14 9 20 20 6 11 9 20 8 20 -2
0 -11 -9 -21 -20z"/>
<path d="M2590 3181 c0 -10 29 -36 34 -30 1 2 -6 12 -16 22 -10 9 -18 13 -18
8z"/>
<path d="M2630 3180 c0 -6 7 -10 15 -10 8 0 15 2 15 4 0 2 -7 6 -15 10 -8 3
-15 1 -15 -4z"/>
<path d="M4533 3149 c-2 -23 3 -25 10 -4 4 8 3 16 -1 19 -4 3 -9 -4 -9 -15z"/>
<path d="M2495 3139 c-4 -6 -4 -13 -1 -16 3 -4 6 -1 6 6 0 7 5 9 12 5 7 -4 8
-3 4 4 -9 15 -13 15 -21 1z"/>
<path d="M2547 3134 c2 -7 11 -10 19 -7 19 7 18 10 -5 16 -13 3 -18 1 -14 -9z"/>
<path d="M2595 3131 c4 -8 2 -17 -6 -22 -9 -6 -10 -9 -2 -9 19 0 27 21 13 33
-10 9 -11 9 -5 -2z"/>
<path d="M4495 3120 c3 -5 8 -10 11 -10 2 0 4 5 4 10 0 6 -5 10 -11 10 -5 0
-7 -4 -4 -10z"/>
<path d="M2516 3107 c3 -10 9 -15 12 -12 3 3 0 11 -7 18 -10 9 -11 8 -5 -6z"/>
<path d="M574 3078 c-3 -5 0 -7 8 -6 7 2 12 -4 10 -12 -2 -8 0 -11 4 -7 14 13
12 34 -3 34 -7 0 -16 -4 -19 -9z"/>
<path d="M2590 3080 c0 -5 5 -10 11 -10 5 0 7 5 4 10 -3 6 -8 10 -11 10 -2 0
-4 -4 -4 -10z"/>
<path d="M2575 3060 c5 -9 1 -10 -16 -6 -21 6 -22 6 -6 -5 13 -7 22 -8 29 -1
6 6 6 12 -3 17 -8 6 -10 4 -4 -5z"/>
<path d="M4535 3060 c3 -5 8 -10 11 -10 2 0 4 5 4 10 0 6 -5 10 -11 10 -5 0
-7 -4 -4 -10z"/>
<path d="M2522 3044 c10 -10 20 -16 22 -13 3 3 -5 11 -17 18 -21 13 -21 12 -5
-5z"/>
<path d="M2620 3034 c0 -9 -5 -12 -12 -8 -7 4 -8 3 -4 -4 10 -16 14 -15 26 8
7 14 7 20 0 20 -5 0 -10 -7 -10 -16z"/>
<path d="M598 3023 c7 -3 16 -2 19 1 4 3 -2 6 -13 5 -11 0 -14 -3 -6 -6z"/>
<path d="M2630 3006 c-8 -16 -18 -23 -29 -19 -14 4 -14 3 -1 -6 11 -8 18 -7
26 4 6 8 13 13 15 10 3 -2 5 5 6 15 2 26 -1 25 -17 -4z"/>
<path d="M4526 3022 c-3 -5 1 -9 9 -9 8 0 12 4 9 9 -3 4 -7 8 -9 8 -2 0 -6 -4
-9 -8z"/>
<path d="M2554 2985 c1 -8 6 -18 11 -22 4 -4 5 -3 2 4 -4 6 -2 13 5 15 8 3 6
6 -4 10 -10 4 -15 2 -14 -7z"/>
<path d="M2515 2968 c4 -13 11 -27 16 -33 5 -5 4 5 -2 23 -12 36 -24 44 -14
10z"/>
<path d="M4495 2980 c-3 -5 -1 -10 4 -10 6 0 11 5 11 10 0 6 -2 10 -4 10 -3 0
-8 -4 -11 -10z"/>
<path d="M569 2963 c-13 -16 -12 -17 4 -4 16 13 21 21 13 21 -2 0 -10 -8 -17
-17z"/>
<path d="M2480 2959 c0 -5 5 -7 10 -4 6 3 10 8 10 11 0 2 -4 4 -10 4 -5 0 -10
-5 -10 -11z"/>
<path d="M2625 2960 c-3 -5 -1 -10 4 -10 6 0 11 5 11 10 0 6 -2 10 -4 10 -3 0
-8 -4 -11 -10z"/>
<path d="M2590 2941 c0 -6 4 -12 8 -15 5 -3 9 1 9 9 0 8 -4 15 -9 15 -4 0 -8
-4 -8 -9z"/>
<path d="M2484 2932 c3 -5 0 -13 -6 -15 -9 -4 -10 -6 -1 -6 17 -1 25 16 12 25
-7 4 -9 3 -5 -4z"/>
<path d="M2540 2920 c-12 -7 -10 -9 7 -7 12 0 19 5 17 9 -6 10 -6 10 -24 -2z"/>
<path d="M2630 2909 c0 -5 -5 -7 -12 -3 -7 4 -8 3 -4 -4 4 -6 13 -9 21 -5 17
6 20 23 5 23 -5 0 -10 -5 -10 -11z"/>
<path d="M600 2895 c-7 -9 -11 -17 -9 -20 3 -2 10 5 17 15 14 24 10 26 -8 5z"/>
<path d="M2495 2900 c-3 -5 -2 -17 3 -26 8 -15 10 -15 15 0 5 12 3 15 -5 10
-8 -5 -9 -2 -5 9 7 19 2 23 -8 7z"/>
<path d="M553 2885 c0 -8 4 -12 9 -9 5 3 6 10 3 15 -9 13 -12 11 -12 -6z"/>
<path d="M2593 2885 c0 -8 4 -15 9 -15 4 0 8 4 8 9 0 6 -4 12 -8 15 -5 3 -9
-1 -9 -9z"/>
<path d="M2475 2860 c3 -5 8 -10 11 -10 2 0 4 5 4 10 0 6 -5 10 -11 10 -5 0
-7 -4 -4 -10z"/>
<path d="M2560 2855 c-7 -8 -9 -15 -5 -15 4 0 1 -8 -6 -17 -13 -16 -12 -17 4
-4 9 8 15 16 12 19 -3 3 0 11 6 19 6 7 9 13 6 13 -2 0 -10 -7 -17 -15z"/>
<path d="M2627 2852 c3 -7 9 -10 12 -5 3 4 10 11 15 15 4 4 -1 6 -12 5 -12 -1
-18 -6 -15 -15z"/>
<path d="M4494 2858 c-4 -7 -4 -10 1 -6 4 4 15 2 24 -5 14 -11 14 -10 2 6 -16
20 -18 21 -27 5z"/>
<path d="M2526 2843 c-6 -14 -5 -15 5 -6 7 7 10 15 7 18 -3 3 -9 -2 -12 -12z"/>
<path d="M2581 2834 c0 -11 3 -14 6 -6 3 7 2 16 -1 19 -3 4 -6 -2 -5 -13z"/>
<path d="M4495 2811 c-3 -5 -2 -12 3 -15 5 -3 9 1 9 9 0 17 -3 19 -12 6z"/>
<path d="M600 2800 c-9 -6 -10 -10 -3 -10 6 0 15 5 18 10 8 12 4 12 -15 0z"/>
<path d="M2636 2794 c-9 -24 -2 -26 12 -4 7 11 8 20 3 20 -5 0 -12 -7 -15 -16z"/>
<path d="M2500 2786 c0 -2 8 -10 18 -17 15 -13 16 -12 3 4 -13 16 -21 21 -21
13z"/>
<path d="M2646 2763 c-6 -14 -5 -15 5 -6 7 7 10 15 7 18 -3 3 -9 -2 -12 -12z"/>
<path d="M4549 2763 c-13 -16 -12 -17 4 -4 9 7 17 15 17 17 0 8 -8 3 -21 -13z"/>
<path d="M2490 2761 c0 -6 4 -13 10 -16 6 -3 7 1 4 9 -7 18 -14 21 -14 7z"/>
<path d="M2554 2726 c1 -14 4 -28 7 -31 3 -3 5 6 5 19 -1 14 -4 28 -7 31 -3 3
-5 -6 -5 -19z"/>
<path d="M2590 2735 c5 -7 6 -16 2 -21 -4 -5 -3 -5 2 -1 15 12 15 34 0 34 -9
0 -11 -4 -4 -12z"/>
<path d="M4507 2739 c7 -9 10 -19 6 -22 -3 -4 -1 -7 5 -7 17 0 15 16 -5 31
-16 12 -17 12 -6 -2z"/>
<path d="M2617 2721 c-3 -13 -1 -18 9 -14 7 2 10 11 7 19 -7 19 -10 18 -16 -5z"/>
<path d="M726 2683 c-6 -14 -5 -15 5 -6 7 7 10 15 7 18 -3 3 -9 -2 -12 -12z"/>
<path d="M1037 2688 c-17 -9 -52 -67 -45 -74 2 -2 12 12 23 31 10 19 22 35 27
35 5 0 4 -9 -2 -19 -12 -23 0 -34 24 -25 12 5 15 2 10 -12 -5 -15 -4 -16 4 -4
15 20 4 32 -20 24 -17 -5 -18 -3 -9 14 6 11 16 22 23 24 8 3 7 6 -3 10 -8 3
-23 2 -32 -4z"/>
<path d="M4513 2685 c0 -8 4 -12 9 -9 5 3 6 10 3 15 -9 13 -12 11 -12 -6z"/>
<path d="M755 2680 c3 -5 8 -10 11 -10 2 0 4 5 4 10 0 6 -5 10 -11 10 -5 0 -7
-4 -4 -10z"/>
<path d="M1170 2658 c-11 -18 -20 -37 -20 -43 0 -5 10 7 22 28 22 37 48 54 28
18 -12 -23 0 -34 24 -25 12 5 15 2 10 -12 -5 -15 -4 -16 4 -4 15 20 4 32 -20
24 -17 -5 -18 -3 -9 14 10 19 6 32 -11 32 -4 0 -17 -15 -28 -32z"/>
<path d="M1330 2658 c-11 -18 -20 -37 -20 -43 0 -5 10 7 22 28 22 37 48 54 28
18 -12 -23 0 -34 24 -25 12 5 15 2 10 -12 -5 -15 -4 -16 4 -4 15 20 4 32 -20
24 -17 -5 -18 -3 -9 14 10 19 6 32 -11 32 -4 0 -17 -15 -28 -32z"/>
<path d="M1490 2658 c-11 -18 -20 -37 -20 -43 0 -5 10 7 22 28 22 37 48 54 28
18 -12 -23 0 -34 24 -25 12 5 15 2 10 -12 -5 -15 -4 -16 4 -4 15 20 4 32 -20
24 -17 -5 -18 -3 -9 14 10 19 6 32 -11 32 -4 0 -17 -15 -28 -32z"/>
<path d="M1650 2658 c-11 -18 -20 -37 -20 -43 0 -5 10 7 22 28 22 37 48 54 28
18 -12 -23 0 -34 24 -25 12 5 15 2 10 -12 -5 -15 -4 -16 4 -4 15 20 4 32 -20
24 -17 -5 -18 -3 -9 14 10 19 6 32 -11 32 -4 0 -17 -15 -28 -32z"/>
<path d="M1810 2658 c-11 -18 -20 -37 -20 -43 0 -5 10 7 22 28 22 37 48 54 28
18 -12 -23 0 -34 24 -25 12 5 15 2 10 -12 -5 -15 -4 -16 4 -4 15 20 4 32 -20
24 -17 -5 -18 -3 -9 14 10 19 6 32 -11 32 -4 0 -17 -15 -28 -32z"/>
<path d="M1970 2658 c-11 -18 -20 -37 -20 -43 0 -5 10 7 22 28 22 37 48 54 28
18 -12 -23 0 -34 24 -25 12 5 15 2 10 -12 -5 -15 -4 -16 4 -4 15 20 4 32 -20
24 -17 -5 -18 -3 -9 14 10 19 6 32 -11 32 -4 0 -17 -15 -28 -32z"/>
<path d="M2270 2680 c0 -5 7 -7 15 -4 8 4 15 8 15 10 0 2 -7 4 -15 4 -8 0 -15
-4 -15 -10z"/>
<path d="M786 2643 l-17 -28 20 23 c20 23 37 30 25 10 -4 -7 -3 -8 5 -4 12 8
6 26 -8 26 -5 0 -16 -12 -25 -27z"/>
<path d="M870 2660 c0 -5 5 -10 10 -10 6 0 10 5 10 10 0 6 -4 10 -10 10 -5 0
-10 -4 -10 -10z"/>
<path d="M1070 2666 c0 -2 7 -6 15 -10 8 -3 15 -1 15 4 0 6 -7 10 -15 10 -8 0
-15 -2 -15 -4z"/>
<path d="M2292 2665 c4 -4 0 -14 -10 -21 -9 -7 -12 -14 -6 -14 6 0 17 6 23 14
9 11 9 16 -1 22 -7 4 -10 4 -6 -1z"/>
<path d="M2363 2658 c-11 -19 -13 -39 -1 -32 5 3 7 9 4 12 -3 3 -1 11 5 19 6
7 9 13 6 13 -3 0 -9 -6 -14 -12z"/>
<path d="M2495 2659 c-3 -4 2 -6 10 -5 21 3 28 13 10 13 -9 0 -18 -4 -20 -8z"/>
<path d="M950 2651 c0 -10 19 -25 25 -20 1 2 -3 10 -11 17 -8 7 -14 8 -14 3z"/>
<path d="M1110 2651 c0 -10 19 -25 25 -20 1 2 -3 10 -11 17 -8 7 -14 8 -14 3z"/>
<path d="M1270 2651 c0 -10 19 -25 25 -20 1 2 -3 10 -11 17 -8 7 -14 8 -14 3z"/>
<path d="M1430 2651 c0 -10 19 -25 25 -20 1 2 -3 10 -11 17 -8 7 -14 8 -14 3z"/>
<path d="M1590 2651 c0 -10 19 -25 25 -20 1 2 -3 10 -11 17 -8 7 -14 8 -14 3z"/>
<path d="M1750 2651 c0 -10 19 -25 25 -20 1 2 -3 10 -11 17 -8 7 -14 8 -14 3z"/>
<path d="M1910 2651 c0 -10 19 -25 25 -20 1 2 -3 10 -11 17 -8 7 -14 8 -14 3z"/>
<path d="M2070 2651 c0 -10 19 -25 25 -20 1 2 -3 10 -11 17 -8 7 -14 8 -14 3z"/>
<path d="M846 2635 c4 -8 8 -15 10 -15 2 0 4 7 4 15 0 8 -4 15 -10 15 -5 0 -7
-7 -4 -15z"/>
<path d="M905 2640 c3 -5 11 -10 16 -10 6 0 7 5 4 10 -3 6 -11 10 -16 10 -6 0
-7 -4 -4 -10z"/>
<path d="M830 2621 c0 -6 4 -13 10 -16 6 -3 7 1 4 9 -7 18 -14 21 -14 7z"/>
<path d="M895 2621 c6 -11 4 -13 -8 -8 -23 9 -21 0 2 -13 15 -7 19 -7 17 5 -1
8 -6 18 -11 22 -4 5 -5 2 0 -6z"/>
<path d="M935 2621 c-3 -6 5 -15 17 -21 21 -10 21 -10 6 3 -10 8 -15 17 -11
20 3 4 4 7 0 7 -3 0 -8 -4 -12 -9z"/>
<path d="M1015 2621 c-3 -6 5 -15 17 -21 21 -10 21 -10 6 3 -10 8 -15 17 -11
20 3 4 4 7 0 7 -3 0 -8 -4 -12 -9z"/>
<path d="M1095 2619 c-4 -6 -5 -12 -2 -15 2 -3 7 2 10 11 7 17 1 20 -8 4z"/>
<path d="M1175 2621 c-3 -6 5 -15 17 -21 21 -10 21 -10 6 3 -10 8 -15 17 -11
20 3 4 4 7 0 7 -3 0 -8 -4 -12 -9z"/>
<path d="M1255 2619 c-4 -6 -5 -12 -2 -15 2 -3 7 2 10 11 7 17 1 20 -8 4z"/>
<path d="M1335 2621 c-3 -6 5 -15 17 -21 21 -10 21 -10 6 3 -10 8 -15 17 -11
20 3 4 4 7 0 7 -3 0 -8 -4 -12 -9z"/>
<path d="M1415 2619 c-4 -6 -5 -12 -2 -15 2 -3 7 2 10 11 7 17 1 20 -8 4z"/>
<path d="M1495 2621 c-3 -6 5 -15 17 -21 21 -10 21 -10 6 3 -10 8 -15 17 -11
20 3 4 4 7 0 7 -3 0 -8 -4 -12 -9z"/>
<path d="M1575 2619 c-4 -6 -5 -12 -2 -15 2 -3 7 2 10 11 7 17 1 20 -8 4z"/>
<path d="M1655 2621 c-3 -6 5 -15 17 -21 21 -10 21 -10 6 3 -10 8 -15 17 -11
20 3 4 4 7 0 7 -3 0 -8 -4 -12 -9z"/>
<path d="M1735 2619 c-4 -6 -5 -12 -2 -15 2 -3 7 2 10 11 7 17 1 20 -8 4z"/>
<path d="M1815 2621 c-3 -6 5 -15 17 -21 21 -10 21 -10 6 3 -10 8 -15 17 -11
20 3 4 4 7 0 7 -3 0 -8 -4 -12 -9z"/>
<path d="M1895 2619 c-4 -6 -5 -12 -2 -15 2 -3 7 2 10 11 7 17 1 20 -8 4z"/>
<path d="M1975 2621 c-3 -6 5 -15 17 -21 21 -10 21 -10 6 3 -10 8 -15 17 -11
20 3 4 4 7 0 7 -3 0 -8 -4 -12 -9z"/>
<path d="M2055 2619 c-4 -6 -5 -12 -2 -15 2 -3 7 2 10 11 7 17 1 20 -8 4z"/>
<path d="M2135 2619 c-4 -6 -5 -12 -2 -15 2 -3 7 2 10 11 7 17 1 20 -8 4z"/>
<path d="M2193 2624 c3 -3 2 -16 -3 -28 -6 -17 -4 -22 11 -22 12 0 15 4 8 12
-5 6 -7 19 -3 28 4 10 1 16 -7 16 -7 0 -10 -3 -6 -6z"/>
<path d="M4506 2620 c6 -8 10 -23 8 -33 -1 -11 0 -16 4 -13 12 13 10 36 -6 48
-15 11 -15 11 -6 -2z"/>
<path d="M2246 2605 c-11 -8 -15 -15 -9 -15 6 0 16 7 23 15 16 19 11 19 -14 0z"/>
<path d="M2590 2616 c0 -2 8 -10 18 -17 15 -13 16 -12 3 4 -13 16 -21 21 -21
13z"/>
<path d="M686 2602 c-3 -5 1 -9 9 -9 8 0 12 4 9 9 -3 4 -7 8 -9 8 -2 0 -6 -4
-9 -8z"/>
<path d="M1120 2590 c6 -11 13 -20 16 -20 2 0 0 9 -6 20 -6 11 -13 20 -16 20
-2 0 0 -9 6 -20z"/>
<path d="M1280 2590 c6 -11 13 -20 16 -20 2 0 0 9 -6 20 -6 11 -13 20 -16 20
-2 0 0 -9 6 -20z"/>
<path d="M1440 2590 c6 -11 13 -20 16 -20 2 0 0 9 -6 20 -6 11 -13 20 -16 20
-2 0 0 -9 6 -20z"/>
<path d="M1600 2590 c6 -11 13 -20 16 -20 2 0 0 9 -6 20 -6 11 -13 20 -16 20
-2 0 0 -9 6 -20z"/>
<path d="M1760 2590 c6 -11 13 -20 16 -20 2 0 0 9 -6 20 -6 11 -13 20 -16 20
-2 0 0 -9 6 -20z"/>
<path d="M1920 2590 c6 -11 13 -20 16 -20 2 0 0 9 -6 20 -6 11 -13 20 -16 20
-2 0 0 -9 6 -20z"/>
<path d="M2269 2583 c-13 -16 -12 -17 4 -4 9 7 17 15 17 17 0 8 -8 3 -21 -13z"/>
<path d="M735 2580 c3 -5 8 -10 11 -10 2 0 4 5 4 10 0 6 -5 10 -11 10 -5 0 -7
-4 -4 -10z"/>
<path d="M2625 2580 c-3 -6 1 -7 9 -4 18 7 21 14 7 14 -6 0 -13 -4 -16 -10z"/>
<path d="M913 2565 c0 -8 4 -15 9 -15 4 0 8 4 8 9 0 6 -4 12 -8 15 -5 3 -9 -1
-9 -9z"/>
<path d="M1080 2560 c-12 -7 -10 -9 8 -7 12 0 22 5 22 9 0 11 -12 10 -30 -2z"/>
<path d="M1240 2560 c-12 -7 -10 -9 8 -7 12 0 22 5 22 9 0 11 -12 10 -30 -2z"/>
<path d="M1400 2560 c-12 -7 -10 -9 8 -7 12 0 22 5 22 9 0 11 -12 10 -30 -2z"/>
<path d="M1560 2560 c-12 -7 -10 -9 8 -7 12 0 22 5 22 9 0 11 -12 10 -30 -2z"/>
<path d="M1720 2560 c-12 -7 -10 -9 8 -7 12 0 22 5 22 9 0 11 -12 10 -30 -2z"/>
<path d="M1880 2560 c-12 -7 -10 -9 8 -7 12 0 22 5 22 9 0 11 -12 10 -30 -2z"/>
<path d="M2040 2560 c-12 -7 -10 -9 8 -7 12 0 22 5 22 9 0 11 -12 10 -30 -2z"/>
<path d="M2120 2560 c-12 -7 -10 -9 8 -7 12 0 22 5 22 9 0 11 -12 10 -30 -2z"/>
<path d="M833 2527 c-1 -11 -1 -18 0 -16 2 2 8 11 15 20 9 12 9 16 -1 16 -7 0
-14 -9 -14 -20z"/>
<path d="M1030 2543 c7 -3 7 -10 -2 -21 -7 -10 -9 -14 -4 -10 5 4 16 3 26 -2
12 -6 17 -5 17 5 0 7 -7 11 -14 8 -8 -3 -13 0 -11 7 2 7 -3 14 -10 16 -7 1 -8
0 -2 -3z"/>
<path d="M1190 2543 c7 -3 7 -10 -2 -21 -7 -10 -9 -14 -4 -10 5 4 16 3 26 -2
12 -6 17 -5 17 5 0 7 -7 11 -14 8 -8 -3 -13 0 -11 7 2 7 -3 14 -10 16 -7 1 -8
0 -2 -3z"/>
<path d="M1350 2543 c7 -3 7 -10 -2 -21 -7 -10 -9 -14 -4 -10 5 4 16 3 26 -2
12 -6 17 -5 17 5 0 7 -7 11 -14 8 -8 -3 -13 0 -11 7 2 7 -3 14 -10 16 -7 1 -8
0 -2 -3z"/>
<path d="M1510 2543 c7 -3 7 -10 -2 -21 -7 -10 -9 -14 -4 -10 5 4 16 3 26 -2
12 -6 17 -5 17 5 0 7 -7 11 -14 8 -8 -3 -13 0 -11 7 2 7 -3 14 -10 16 -7 1 -8
0 -2 -3z"/>
<path d="M1670 2543 c7 -3 7 -10 -2 -21 -7 -10 -9 -14 -4 -10 5 4 16 3 26 -2
12 -6 17 -5 17 5 0 7 -7 11 -14 8 -8 -3 -13 0 -11 7 2 7 -3 14 -10 16 -7 1 -8
0 -2 -3z"/>
<path d="M1830 2543 c7 -3 7 -10 -2 -21 -7 -10 -9 -14 -4 -10 5 4 16 3 26 -2
12 -6 17 -5 17 5 0 7 -7 11 -14 8 -8 -3 -13 0 -11 7 2 7 -3 14 -10 16 -7 1 -8
0 -2 -3z"/>
<path d="M1990 2543 c7 -3 7 -10 -2 -21 -7 -10 -9 -14 -4 -10 5 4 16 3 26 -2
12 -6 17 -5 17 5 0 7 -7 11 -14 8 -8 -3 -13 0 -11 7 2 7 -3 14 -10 16 -7 1 -8
0 -2 -3z"/>
<path d="M2190 2535 c5 -7 6 -16 2 -21 -4 -5 -3 -5 2 -1 15 12 15 34 0 34 -9
0 -11 -4 -4 -12z"/>
<path d="M2229 2537 c7 -7 5 -15 -7 -24 -15 -13 -15 -13 4 -4 15 7 25 7 35 -2
7 -7 6 -3 -4 9 -9 11 -15 23 -12 26 3 2 -2 5 -10 5 -11 0 -12 -4 -6 -10z"/>
<path d="M2260 2546 c0 -2 8 -10 18 -17 15 -13 16 -12 3 4 -13 16 -21 21 -21
13z"/>
<path d="M2630 2541 c0 -6 4 -13 10 -16 6 -3 7 1 4 9 -7 18 -14 21 -14 7z"/>
<path d="M4514 2525 c0 -13 3 -22 7 -19 8 4 6 30 -2 38 -3 3 -5 -5 -5 -19z"/>
<path d="M1093 2525 c-3 -9 -3 -18 -1 -21 3 -3 8 4 11 16 6 23 -1 27 -10 5z"/>
<path d="M1253 2525 c-3 -9 -3 -18 -1 -21 3 -3 8 4 11 16 6 23 -1 27 -10 5z"/>
<path d="M1413 2525 c-3 -9 -3 -18 -1 -21 3 -3 8 4 11 16 6 23 -1 27 -10 5z"/>
<path d="M1573 2525 c-3 -9 -3 -18 -1 -21 3 -3 8 4 11 16 6 23 -1 27 -10 5z"/>
<path d="M1733 2525 c-3 -9 -3 -18 -1 -21 3 -3 8 4 11 16 6 23 -1 27 -10 5z"/>
<path d="M1893 2525 c-3 -9 -3 -18 -1 -21 3 -3 8 4 11 16 6 23 -1 27 -10 5z"/>
<path d="M2053 2525 c-3 -9 -3 -18 -1 -21 3 -3 8 4 11 16 6 23 -1 27 -10 5z"/>
<path d="M859 2513 c-13 -16 -12 -17 4 -4 9 7 17 15 17 17 0 8 -8 3 -21 -13z"/>
<path d="M931 2514 c0 -11 3 -14 6 -6 3 7 2 16 -1 19 -3 4 -6 -2 -5 -13z"/>
<path d="M995 2521 c-3 -5 -2 -12 3 -15 5 -3 9 1 9 9 0 17 -3 19 -12 6z"/>
<path d="M1155 2521 c-3 -5 -2 -12 3 -15 5 -3 9 1 9 9 0 17 -3 19 -12 6z"/>
<path d="M1315 2521 c-3 -5 -2 -12 3 -15 5 -3 9 1 9 9 0 17 -3 19 -12 6z"/>
<path d="M1475 2521 c-3 -5 -2 -12 3 -15 5 -3 9 1 9 9 0 17 -3 19 -12 6z"/>
<path d="M1635 2521 c-3 -5 -2 -12 3 -15 5 -3 9 1 9 9 0 17 -3 19 -12 6z"/>
<path d="M1795 2521 c-3 -5 -2 -12 3 -15 5 -3 9 1 9 9 0 17 -3 19 -12 6z"/>
<path d="M1955 2521 c-3 -5 -2 -12 3 -15 5 -3 9 1 9 9 0 17 -3 19 -12 6z"/>
<path d="M2086 2521 c-19 -7 -19 -8 0 -13 13 -3 21 0 21 8 0 8 -1 14 -1 13 -1
0 -10 -4 -20 -8z"/>
<path d="M2131 2514 c0 -11 3 -14 6 -6 3 7 2 16 -1 19 -3 4 -6 -2 -5 -13z"/>
<path d="M2416 2518 c3 -5 10 -6 15 -3 13 9 11 12 -6 12 -8 0 -12 -4 -9 -9z"/>
<path d="M2530 2519 c0 -5 5 -7 10 -4 6 3 10 8 10 11 0 2 -4 4 -10 4 -5 0 -10
-5 -10 -11z"/>
<path d="M767 2492 c-46 -2 -79 -9 -100 -22 -18 -11 -28 -20 -24 -20 4 0 2
-10 -4 -22 -7 -12 -11 -51 -10 -87 1 -43 -2 -67 -11 -73 -10 -6 -10 -8 0 -8 9
0 12 -24 12 -85 0 -61 -3 -85 -12 -85 -8 0 -9 -3 -3 -8 13 -9 20 -76 8 -69 -6
4 -10 0 -10 -8 0 -8 3 -12 7 -10 3 2 7 -23 8 -55 1 -54 0 -58 -18 -55 -11 2
-20 -1 -20 -6 0 -5 8 -9 18 -7 12 2 18 -5 20 -26 2 -16 -1 -26 -6 -22 -5 3
-16 -2 -23 -12 -12 -15 -12 -16 2 -5 9 7 19 10 22 6 11 -10 8 -35 -2 -28 -5 3
-13 1 -16 -5 -4 -6 -1 -9 6 -8 7 2 15 -5 17 -16 2 -10 0 -16 -6 -12 -5 3 -16
-2 -23 -12 -12 -15 -12 -16 2 -5 9 7 19 10 22 6 11 -10 8 -35 -2 -28 -5 3 -13
1 -16 -5 -4 -6 -1 -9 6 -8 6 2 13 -10 16 -25 2 -16 0 -26 -5 -24 -4 3 -14 1
-22 -4 -12 -8 -11 -9 5 -7 16 2 21 -3 23 -34 3 -33 1 -37 -17 -33 -12 2 -21
-1 -21 -6 0 -5 8 -9 18 -7 12 2 18 -5 20 -26 2 -16 -1 -26 -6 -22 -5 3 -16 -2
-23 -12 -12 -15 -12 -16 2 -5 9 7 19 10 22 6 11 -10 8 -35 -2 -28 -5 3 -13 1
-16 -5 -4 -6 -1 -9 6 -8 7 2 15 -5 17 -16 2 -10 0 -16 -6 -12 -5 3 -16 -2 -23
-12 -12 -15 -12 -16 2 -5 9 7 19 10 22 6 11 -10 8 -35 -2 -28 -5 3 -13 1 -16
-5 -4 -6 -1 -9 6 -8 6 2 13 -10 16 -25 2 -16 0 -26 -5 -24 -4 3 -14 1 -22 -4
-12 -8 -11 -9 5 -7 19 3 20 -3 22 -129 0 -73 -2 -131 -6 -128 -4 2 -8 -2 -8
-10 0 -8 3 -12 7 -10 3 2 7 -28 8 -67 2 -49 -2 -74 -10 -80 -10 -6 -10 -8 0
-8 16 0 16 -32 -1 -49 -9 -11 -9 -13 1 -7 9 5 12 -9 12 -58 0 -36 4 -66 8 -66
4 0 15 -13 25 -29 12 -21 22 -28 37 -24 14 4 20 0 20 -10 0 -9 4 -18 9 -21 5
-4 7 4 3 16 -5 21 -4 22 13 8 10 -8 16 -10 12 -4 -8 15 25 13 36 -1 5 -7 10
-7 15 0 11 15 47 12 47 -5 0 -8 7 -15 15 -16 8 0 10 1 3 3 -7 2 -9 11 -6 19 5
13 8 13 15 2 8 -10 11 -10 15 0 2 6 9 10 14 7 5 -4 2 -17 -7 -30 -11 -18 -12
-25 -3 -31 7 -4 9 -3 6 3 -3 5 2 22 12 37 13 19 20 24 24 14 5 -11 7 -11 15 1
8 11 10 11 15 0 5 -12 7 -12 15 0 7 9 12 10 16 2 4 -6 2 -11 -4 -11 -6 0 -8
-5 -4 -11 5 -8 10 -6 18 7 8 14 22 19 56 19 34 0 48 -5 56 -19 8 -13 13 -15
18 -7 4 6 2 11 -4 11 -6 0 -8 5 -4 11 4 8 9 7 15 -2 8 -12 10 -12 18 0 6 9 11
10 15 2 4 -6 1 -11 -6 -11 -8 0 -7 -6 5 -17 16 -16 18 -16 39 5 12 12 20 22
16 22 -4 0 -14 -7 -23 -16 -18 -18 -31 -13 -18 8 9 15 103 19 103 5 0 -5 6 -5
13 2 10 8 17 7 25 -1 9 -9 12 -9 12 3 0 12 2 12 11 -1 9 -13 11 -13 16 -1 4
10 9 8 18 -9 10 -19 13 -20 18 -6 5 11 3 15 -5 10 -6 -4 -8 -3 -5 3 7 11 36
11 55 -1 7 -4 12 -2 12 6 1 7 7 2 14 -11 8 -15 16 -20 20 -12 4 6 2 11 -4 11
-6 0 -8 5 -4 11 4 8 9 7 15 -2 8 -12 10 -12 18 0 7 11 9 11 14 0 4 -12 7 -11
16 1 8 11 11 12 11 2 0 -8 5 -10 13 -5 24 15 72 9 83 -11 8 -13 13 -15 18 -7
4 6 2 11 -4 11 -6 0 -8 5 -4 11 4 8 9 7 15 -2 8 -12 10 -12 18 0 6 9 11 10 15
2 4 -6 2 -11 -4 -11 -6 0 -8 -5 -4 -11 4 -8 11 -4 19 11 7 14 15 18 19 12 3
-6 2 -13 -4 -17 -5 -3 -10 -14 -10 -23 0 -10 8 -3 17 16 12 24 18 30 25 20 6
-10 10 -10 18 2 7 11 10 11 10 2 0 -8 5 -10 12 -6 18 11 48 12 54 2 3 -5 13
-3 22 4 12 10 14 10 8 1 -4 -8 -1 -13 8 -13 9 0 16 5 16 12 0 9 3 9 12 0 13
-13 32 -16 24 -4 -2 4 4 8 14 8 10 0 16 -4 14 -8 -3 -4 0 -8 5 -8 6 0 11 6 11
13 0 9 3 8 9 -2 6 -9 11 -10 15 -2 4 6 11 9 16 6 5 -3 0 -15 -10 -25 -11 -11
-20 -26 -19 -32 0 -10 2 -10 6 0 2 6 9 10 14 7 5 -4 6 2 2 11 -5 13 -3 15 8 8
21 -13 39 -14 39 -2 0 6 -7 8 -15 4 -8 -3 -15 -2 -15 2 1 31 66 39 76 10 3
-10 10 -16 15 -13 16 11 10 -7 -8 -22 -16 -13 -16 -13 5 -3 27 13 28 25 5 39
-10 6 -13 11 -8 12 36 6 62 2 74 -10 12 -11 16 -11 25 0 12 15 119 21 110 7
-3 -4 0 -8 5 -8 6 0 11 6 11 13 0 8 4 7 10 -3 5 -8 10 -10 10 -4 0 7 11 14 24
18 13 3 35 24 50 47 15 23 23 38 17 35 -18 -11 -12 6 7 20 12 10 13 13 2 9
-12 -4 -15 4 -15 42 1 46 19 73 22 33 1 -13 -2 -18 -9 -14 -7 4 -8 2 -4 -5 11
-17 25 -4 23 21 -1 11 -10 23 -20 26 -15 4 -16 7 -5 13 10 7 11 9 0 9 -7 0
-10 5 -7 10 5 8 11 7 21 0 7 -7 19 -10 26 -7 8 3 6 6 -5 6 -10 1 -15 6 -12 11
4 6 16 8 28 5 20 -5 20 -5 4 5 -12 8 -22 8 -30 1 -8 -6 -18 -6 -27 -1 -15 9
-13 11 13 14 6 1 11 12 10 24 -2 13 1 21 5 18 4 -2 14 0 22 5 11 7 8 8 -10 5
-18 -2 -24 -9 -23 -24 2 -15 -2 -20 -12 -16 -14 6 -17 44 -3 44 4 0 8 5 8 11
0 5 -4 8 -9 4 -13 -8 -4 36 10 49 8 8 10 4 5 -14 -6 -21 -5 -22 4 -7 13 20 5
38 -14 31 -7 -3 -13 2 -13 10 0 8 4 13 9 10 4 -3 8 0 8 5 0 6 -6 11 -12 11 -7
1 -2 8 12 16 14 8 17 13 8 10 -10 -3 -20 -1 -23 4 -4 6 -1 10 4 10 6 0 11 5
11 11 0 5 -6 7 -12 3 -8 -5 -8 -1 1 10 14 16 15 16 26 -4 10 -20 13 -20 18 -6
4 10 3 15 -2 12 -5 -3 -11 1 -15 9 -3 8 -11 12 -19 10 -9 -4 -13 3 -13 20 0
14 5 25 11 25 5 0 3 5 -5 10 -10 6 -11 10 -2 10 6 0 12 5 12 11 0 5 -4 8 -8 5
-5 -3 -8 4 -7 15 1 11 8 25 16 30 12 7 11 9 -2 9 -9 0 -16 7 -16 15 0 8 4 15
9 15 4 0 8 -4 8 -10 0 -5 6 -10 13 -10 6 1 1 10 -12 20 -17 15 -19 20 -8 20 9
0 19 5 23 11 4 8 -1 9 -17 5 -23 -7 -23 -7 -5 8 20 16 20 16 0 16 -19 1 -19 1
0 15 26 20 37 19 30 -2 -5 -15 -4 -16 5 -3 15 21 -3 34 -28 21 -14 -8 -21 -8
-21 -1 0 5 4 10 8 10 11 0 35 51 28 58 -3 2 -10 -7 -15 -22 -14 -34 -17 -33
-15 7 3 48 3 49 14 42 6 -3 13 1 16 9 3 9 10 13 15 10 5 -3 6 3 2 12 -4 12 -8
14 -11 6 -3 -10 -7 -10 -20 0 -14 10 -15 10 -4 -2 16 -18 16 -31 -1 -24 -13 5
-18 74 -4 74 4 0 7 5 7 11 0 5 -6 7 -12 3 -8 -5 -8 -1 1 10 14 16 15 16 26 -4
10 -20 13 -20 18 -6 4 10 3 15 -2 12 -5 -3 -11 1 -15 9 -3 8 -11 12 -19 10 -9
-4 -13 3 -13 20 0 14 5 25 11 25 5 0 3 5 -5 10 -10 6 -11 10 -2 10 6 0 12 5
12 11 0 5 -4 8 -8 5 -5 -3 -8 4 -7 15 1 11 8 25 16 30 12 7 11 9 -2 9 -9 0
-16 7 -16 15 0 8 4 15 9 15 4 0 8 -4 8 -10 0 -5 6 -10 13 -10 6 1 1 10 -12 20
-17 15 -19 20 -8 20 9 0 19 5 23 11 4 8 -1 9 -17 5 -23 -7 -23 -7 -5 8 20 16
20 16 0 16 -19 1 -19 1 0 15 26 20 37 19 30 -2 -5 -15 -4 -16 5 -3 15 21 -3
34 -28 21 -14 -8 -21 -8 -21 -1 0 5 4 10 8 10 11 0 35 51 28 58 -3 2 -10 -7
-15 -22 -14 -34 -17 -33 -15 7 3 48 3 49 14 42 6 -3 13 1 16 9 3 9 10 13 15
10 5 -3 6 3 2 12 -4 12 -8 14 -11 6 -3 -10 -7 -10 -20 0 -14 10 -15 10 -4 -2
16 -18 16 -31 -1 -24 -13 5 -18 74 -4 74 4 0 7 5 7 11 0 5 -6 7 -12 3 -8 -5
-8 -1 1 10 14 16 15 16 26 -4 10 -20 13 -20 18 -6 4 10 3 15 -2 12 -5 -3 -11
1 -15 9 -3 8 -11 12 -18 10 -10 -4 -14 7 -14 40 0 25 4 45 9 45 5 0 3 8 -4 17
-10 11 -10 14 -1 9 13 -8 17 6 5 18 -13 12 -10 30 7 44 13 11 13 11 0 7 -12
-4 -16 1 -16 20 0 14 4 25 8 25 4 0 8 5 8 11 0 5 -5 7 -11 3 -8 -5 -10 1 -7
20 3 14 1 26 -4 26 -5 0 -7 3 -5 8 2 4 -7 17 -19 28 -20 19 -35 22 -131 23
-195 4 -1476 6 -1546 3z"/>
<path d="M2594 2448 l-19 -23 23 19 c21 18 27 26 19 26 -2 0 -12 -10 -23 -22z"/>
<path d="M4513 2435 c0 -8 4 -12 9 -9 5 3 6 10 3 15 -9 13 -12 11 -12 -6z"/>
<path d="M2626 2418 c3 -5 10 -6 15 -3 13 9 11 12 -6 12 -8 0 -12 -4 -9 -9z"/>
<path d="M2640 2400 c-9 -6 -10 -10 -3 -10 6 0 15 5 18 10 8 12 4 12 -15 0z"/>
<path d="M4513 2395 c0 -8 4 -12 9 -9 4 3 8 9 8 15 0 5 -4 9 -8 9 -5 0 -9 -7
-9 -15z"/>
<path d="M2534 2360 c0 -13 4 -16 10 -10 7 7 7 13 0 20 -6 6 -10 3 -10 -10z"/>
<path d="M2646 2363 c-6 -14 -5 -15 5 -6 7 7 10 15 7 18 -3 3 -9 -2 -12 -12z"/>
<path d="M2499 2353 c-13 -16 -12 -17 4 -4 9 7 17 15 17 17 0 8 -8 3 -21 -13z"/>
<path d="M2590 2358 c0 -6 6 -8 14 -5 8 3 17 2 20 -4 2 -5 3 -4 2 2 -3 15 -36
21 -36 7z"/>
<path d="M4520 2360 c-9 -6 -10 -10 -3 -10 6 0 15 5 18 10 8 12 4 12 -15 0z"/>
<path d="M4556 2353 c-6 -14 -5 -15 5 -6 7 7 10 15 7 18 -3 3 -9 -2 -12 -12z"/>
<path d="M2570 2336 c0 -2 8 -10 18 -17 15 -13 16 -12 3 4 -13 16 -21 21 -21
13z"/>
<path d="M2620 2315 c-11 -13 -10 -14 4 -9 9 3 16 10 16 15 0 13 -6 11 -20 -6z"/>
<path d="M2500 2304 c0 -1 6 -7 14 -13 10 -9 15 -8 19 2 3 8 -3 13 -14 13 -11
0 -19 -1 -19 -2z"/>
<path d="M2602 2284 c10 -10 20 -16 22 -13 3 3 -5 11 -17 18 -21 13 -21 12 -5
-5z"/>
<path d="M2554 2282 c4 -3 14 -7 22 -8 9 -1 13 0 10 4 -4 3 -14 7 -22 8 -9 1
-13 0 -10 -4z"/>
<path d="M2632 2264 c-7 -8 -8 -14 -3 -14 10 0 25 19 20 25 -2 1 -10 -3 -17
-11z"/>
<path d="M570 2259 c0 -5 5 -7 10 -4 6 3 10 8 10 11 0 2 -4 4 -10 4 -5 0 -10
-5 -10 -11z"/>
<path d="M2527 2239 c7 -7 15 -10 18 -7 3 3 -2 9 -12 12 -14 6 -15 5 -6 -5z"/>
<path d="M2587 2243 c-3 -5 6 -9 20 -10 19 -1 22 1 12 8 -17 11 -26 11 -32 2z"/>
<path d="M2510 2220 c0 -5 5 -10 11 -10 5 0 7 5 4 10 -3 6 -8 10 -11 10 -2 0
-4 -4 -4 -10z"/>
<path d="M2635 2219 c-11 -16 -1 -19 13 -3 7 8 8 14 3 14 -5 0 -13 -5 -16 -11z"/>
<path d="M4494 2218 c-4 -7 -4 -10 1 -6 4 4 15 2 24 -5 14 -11 14 -10 2 6 -16
20 -18 21 -27 5z"/>
<path d="M2494 2195 c1 -11 7 -19 15 -17 9 2 11 -3 7 -15 -6 -14 -4 -15 5 -6
12 12 3 37 -11 28 -5 -3 -10 3 -13 12 -3 14 -4 13 -3 -2z"/>
<path d="M2586 2204 c-9 -24 -2 -26 12 -4 7 11 8 20 3 20 -5 0 -12 -7 -15 -16z"/>
<path d="M601 2172 c-7 -13 -6 -19 2 -19 7 0 13 9 13 19 0 10 -1 18 -3 18 -1
0 -7 -8 -12 -18z"/>
<path d="M4495 2171 c-3 -5 -2 -12 3 -15 5 -3 9 1 9 9 0 17 -3 19 -12 6z"/>
<path d="M2576 2162 c-3 -5 1 -9 9 -9 8 0 12 4 9 9 -3 4 -7 8 -9 8 -2 0 -6 -4
-9 -8z"/>
<path d="M2632 2150 c7 -10 14 -18 15 -16 6 6 -9 36 -18 36 -5 0 -4 -9 3 -20z"/>
<path d="M2535 2151 c-3 -5 0 -13 6 -17 7 -4 9 -3 5 4 -3 5 0 13 6 15 9 4 10
6 1 6 -6 1 -14 -3 -18 -8z"/>
<path d="M2595 2139 c-18 -9 -18 -9 3 -5 16 3 22 -1 22 -14 0 -13 -6 -17 -22
-14 -21 4 -21 4 -3 -5 25 -11 35 -5 35 19 0 24 -10 30 -35 19z"/>
<path d="M4549 2123 c-13 -16 -12 -17 4 -4 16 13 21 21 13 21 -2 0 -10 -8 -17
-17z"/>
<path d="M2554 2115 c-4 -8 -11 -12 -17 -8 -6 3 -7 1 -3 -5 9 -15 33 -5 33 13
0 19 -6 19 -13 0z"/>
<path d="M2636 2093 c-6 -14 -5 -15 5 -6 7 7 10 15 7 18 -3 3 -9 -2 -12 -12z"/>
<path d="M4507 2099 c7 -9 10 -19 6 -22 -3 -4 -1 -7 5 -7 17 0 15 16 -5 31
-16 12 -17 12 -6 -2z"/>
<path d="M2490 2080 c0 -5 5 -10 10 -10 6 0 10 5 10 10 0 6 -4 10 -10 10 -5 0
-10 -4 -10 -10z"/>
<path d="M2575 2080 c3 -5 8 -10 11 -10 2 0 4 5 4 10 0 6 -5 10 -11 10 -5 0
-7 -4 -4 -10z"/>
<path d="M2533 2057 c-3 -6 -1 -7 5 -3 7 4 12 2 12 -4 0 -6 5 -8 10 -5 6 3 10
10 10 14 0 11 -30 9 -37 -2z"/>
<path d="M2580 2051 c0 -6 4 -13 10 -16 6 -3 7 1 4 9 -7 18 -14 21 -14 7z"/>
<path d="M2614 2041 c2 -14 9 -27 17 -29 11 -3 12 -2 1 6 -8 5 -13 12 -12 16
1 4 -1 12 -4 19 -2 6 -3 1 -2 -12z"/>
<path d="M4513 2045 c0 -8 4 -12 9 -9 5 3 6 10 3 15 -9 13 -12 11 -12 -6z"/>
<path d="M2584 2016 c11 -9 16 -16 10 -16 -5 0 -1 -7 9 -14 10 -8 18 -18 17
-23 -1 -4 6 -9 14 -11 9 -2 16 1 16 7 0 6 -7 7 -17 4 -11 -4 -14 -3 -9 5 4 7
1 15 -8 18 -9 3 -14 10 -11 15 3 4 -5 13 -17 19 -22 11 -22 10 -4 -4z"/>
<path d="M2516 2012 c-2 -4 -1 -14 4 -22 7 -11 9 -9 7 8 -1 24 -3 26 -11 14z"/>
<path d="M2548 2003 c7 -3 16 -2 19 1 4 3 -2 6 -13 5 -11 0 -14 -3 -6 -6z"/>
<path d="M2630 1996 c0 -2 7 -7 16 -10 8 -3 12 -2 9 4 -6 10 -25 14 -25 6z"/>
<path d="M575 1980 c3 -5 8 -10 11 -10 2 0 4 5 4 10 0 6 -5 10 -11 10 -5 0 -7
-4 -4 -10z"/>
<path d="M2565 1979 c-4 -6 -4 -13 -1 -16 3 -4 6 -1 6 6 0 7 5 9 12 5 7 -4 8
-3 4 4 -9 15 -13 15 -21 1z"/>
<path d="M4506 1980 c6 -8 10 -23 8 -33 -1 -11 0 -16 4 -13 12 13 10 36 -6 48
-15 11 -15 11 -6 -2z"/>
<path d="M2520 1960 c-8 -5 -10 -10 -5 -10 6 0 17 5 25 10 8 5 11 10 5 10 -5
0 -17 -5 -25 -10z"/>
<path d="M2593 1945 c0 -8 4 -15 9 -15 4 0 8 4 8 9 0 6 -4 12 -8 15 -5 3 -9
-1 -9 -9z"/>
<path d="M2535 1940 c-3 -6 1 -7 9 -4 18 7 21 14 7 14 -6 0 -13 -4 -16 -10z"/>
<path d="M596 1922 c-3 -5 1 -9 9 -9 8 0 12 4 9 9 -3 4 -7 8 -9 8 -2 0 -6 -4
-9 -8z"/>
<path d="M2558 1923 c7 -3 16 -2 19 1 4 3 -2 6 -13 5 -11 0 -14 -3 -6 -6z"/>
<path d="M2604 1914 c-18 -14 -18 -14 6 -3 31 14 36 19 24 19 -6 0 -19 -7 -30
-16z"/>
<path d="M2529 1889 c-12 -24 3 -50 16 -28 5 8 4 10 -3 5 -15 -9 -15 -1 -2 25
6 10 8 19 6 19 -3 0 -10 -9 -17 -21z"/>
<path d="M2630 1900 c0 -5 5 -10 10 -10 6 0 10 5 10 10 0 6 -4 10 -10 10 -5 0
-10 -4 -10 -10z"/>
<path d="M2570 1885 c0 -8 29 -12 39 -5 9 5 4 8 -13 8 -14 0 -26 -2 -26 -3z"/>
<path d="M4533 1869 c-2 -23 3 -25 10 -4 4 8 3 16 -1 19 -4 3 -9 -4 -9 -15z"/>
<path d="M2636 1867 c3 -10 9 -15 12 -12 3 3 0 11 -7 18 -10 9 -11 8 -5 -6z"/>
<path d="M2560 1855 c-7 -9 -10 -18 -7 -22 4 -3 9 2 13 11 3 9 11 13 17 9 6
-3 7 -1 3 5 -9 15 -11 15 -26 -3z"/>
<path d="M2604 1859 c-5 -8 -3 -9 6 -4 10 6 12 3 8 -13 -7 -26 2 -34 22 -21
10 6 11 9 3 9 -7 0 -13 6 -13 14 0 20 -17 29 -26 15z"/>
<path d="M2510 1840 c0 -5 9 -14 20 -20 11 -6 20 -9 20 -8 0 2 -9 11 -20 21
-11 9 -20 13 -20 7z"/>
<path d="M4495 1840 c3 -5 8 -10 11 -10 2 0 4 5 4 10 0 6 -5 10 -11 10 -5 0
-7 -4 -4 -10z"/>
<path d="M2594 1799 c0 -10 4 -19 8 -19 4 0 8 6 8 14 0 8 -4 17 -8 20 -4 2 -8
-4 -8 -15z"/>
<path d="M2530 1790 c6 -11 13 -20 16 -20 2 0 0 9 -6 20 -6 11 -13 20 -16 20
-2 0 0 -9 6 -20z"/>
<path d="M2555 1801 c-3 -5 0 -13 6 -17 7 -4 9 -3 5 4 -3 5 0 13 6 15 9 4 10
6 1 6 -6 1 -14 -3 -18 -8z"/>
<path d="M2635 1800 c-7 -12 2 -30 16 -30 5 0 9 5 9 11 0 5 -4 7 -10 4 -5 -3
-10 -2 -10 4 0 5 6 12 13 14 9 4 9 6 0 6 -6 1 -15 -3 -18 -9z"/>
<path d="M2514 1778 c6 -20 -4 -23 -22 -8 -7 5 -5 2 3 -7 18 -21 40 -6 24 17
-9 13 -10 12 -5 -2z"/>
<path d="M4535 1780 c3 -5 8 -10 11 -10 2 0 4 5 4 10 0 6 -5 10 -11 10 -5 0
-7 -4 -4 -10z"/>
<path d="M2570 1762 c0 -5 7 -9 15 -9 8 0 12 4 9 9 -3 4 -9 8 -15 8 -5 0 -9
-4 -9 -8z"/>
<path d="M2626 1755 c10 -8 23 -15 28 -15 6 0 1 7 -10 15 -10 8 -23 15 -28 15
-6 0 -1 -7 10 -15z"/>
<path d="M2542 1736 c10 -7 14 -17 10 -21 -4 -5 -1 -5 6 -1 19 11 14 23 -10
29 -21 5 -21 5 -6 -7z"/>
<path d="M2605 1739 c-4 -6 -4 -13 -1 -16 3 -4 6 -1 6 6 0 7 5 9 12 5 7 -4 8
-3 4 4 -9 15 -13 15 -21 1z"/>
<path d="M4526 1742 c-3 -5 1 -9 9 -9 8 0 12 4 9 9 -3 4 -7 8 -9 8 -2 0 -6 -4
-9 -8z"/>
<path d="M2500 1726 c0 -2 9 -6 20 -9 11 -3 18 -1 14 4 -5 9 -34 13 -34 5z"/>
<path d="M2635 1720 c-19 -8 -19 -9 3 -9 12 -1 22 4 22 9 0 6 -1 10 -2 9 -2 0
-12 -4 -23 -9z"/>
<path d="M2490 1695 c-11 -13 -10 -14 4 -9 9 3 16 10 16 15 0 13 -6 11 -20 -6z"/>
<path d="M2590 1700 c0 -5 5 -10 10 -10 6 0 10 5 10 10 0 6 -4 10 -10 10 -5 0
-10 -4 -10 -10z"/>
<path d="M4495 1700 c-3 -5 -1 -10 4 -10 6 0 11 5 11 10 0 6 -2 10 -4 10 -3 0
-8 -4 -11 -10z"/>
<path d="M2516 1683 c-6 -14 -5 -15 5 -6 7 7 10 15 7 18 -3 3 -9 -2 -12 -12z"/>
<path d="M2552 1679 c-19 -7 -23 -29 -6 -29 3 0 2 5 -2 12 -5 7 -2 9 9 5 9 -3
18 0 21 9 3 8 4 14 3 13 -1 0 -12 -4 -25 -10z"/>
<path d="M2610 1680 c-8 -5 -10 -10 -5 -10 6 0 17 5 25 10 8 5 11 10 5 10 -5
0 -17 -5 -25 -10z"/>
<path d="M2630 1660 c0 -5 5 -10 10 -10 6 0 10 5 10 10 0 6 -4 10 -10 10 -5 0
-10 -4 -10 -10z"/>
<path d="M2570 1639 c0 -4 10 -6 21 -4 32 6 34 13 4 13 -14 0 -25 -4 -25 -9z"/>
<path d="M2550 1632 c0 -7 -5 -10 -12 -6 -7 4 -8 3 -4 -5 4 -6 12 -9 17 -6 5
4 9 1 9 -6 0 -7 3 -10 6 -6 3 3 1 14 -5 24 -6 11 -11 13 -11 5z"/>
<path d="M2633 1625 c0 -8 4 -15 9 -15 4 0 8 4 8 9 0 6 -4 12 -8 15 -5 3 -9
-1 -9 -9z"/>
<path d="M2490 1600 c0 -5 5 -10 10 -10 6 0 10 5 10 10 0 6 -4 10 -10 10 -5 0
-10 -4 -10 -10z"/>
<path d="M2610 1600 c8 -5 20 -10 25 -10 6 0 3 5 -5 10 -8 5 -19 10 -25 10 -5
0 -3 -5 5 -10z"/>
<path d="M2534 1578 c-4 -6 -3 -8 4 -4 5 3 12 1 14 -5 2 -7 9 -10 16 -8 8 3 5
9 -7 16 -15 9 -22 10 -27 1z"/>
<path d="M2591 1583 c0 -5 4 -17 9 -28 8 -17 8 -16 7 8 -1 15 -5 27 -9 27 -4
0 -8 -3 -7 -7z"/>
<path d="M2645 1580 c-3 -5 -1 -10 4 -10 6 0 11 5 11 10 0 6 -2 10 -4 10 -3 0
-8 -4 -11 -10z"/>
<path d="M4494 1578 c-4 -7 -4 -10 1 -6 4 4 15 2 24 -5 14 -11 14 -10 2 6 -16
20 -18 21 -27 5z"/>
<path d="M2630 1549 c0 -5 5 -7 10 -4 6 3 10 8 10 11 0 2 -4 4 -10 4 -5 0 -10
-5 -10 -11z"/>
<path d="M2516 1532 c-2 -4 -1 -14 4 -22 7 -11 9 -9 7 8 -1 24 -3 26 -11 14z"/>
<path d="M4495 1531 c-3 -5 -2 -12 3 -15 5 -3 9 1 9 9 0 17 -3 19 -12 6z"/>
<path d="M2593 1511 c16 -10 28 -22 27 -27 0 -5 6 -10 14 -12 9 -2 16 1 16 7
0 6 -7 7 -17 4 -10 -4 -14 -2 -10 4 6 10 -33 43 -50 43 -4 0 5 -9 20 -19z"/>
<path d="M2611 1526 c2 -2 15 -9 29 -15 24 -11 24 -11 6 3 -16 13 -49 24 -35
12z"/>
<path d="M2565 1499 c-4 -6 -4 -13 -1 -16 3 -4 6 -1 6 6 0 7 5 9 12 5 7 -4 8
-3 4 4 -9 15 -13 15 -21 1z"/>
<path d="M4549 1483 c-13 -16 -12 -17 4 -4 16 13 21 21 13 21 -2 0 -10 -8 -17
-17z"/>
<path d="M2520 1480 c-8 -5 -10 -10 -5 -10 6 0 17 5 25 10 8 5 11 10 5 10 -5
0 -17 -5 -25 -10z"/>
<path d="M2593 1465 c0 -8 4 -15 9 -15 4 0 8 4 8 9 0 6 -4 12 -8 15 -5 3 -9
-1 -9 -9z"/>
<path d="M2535 1460 c-3 -6 1 -7 9 -4 18 7 21 14 7 14 -6 0 -13 -4 -16 -10z"/>
<path d="M4507 1459 c7 -9 10 -19 6 -22 -3 -4 -1 -7 5 -7 17 0 15 16 -5 31
-16 12 -17 12 -6 -2z"/>
<path d="M2558 1443 c7 -3 16 -2 19 1 4 3 -2 6 -13 5 -11 0 -14 -3 -6 -6z"/>
<path d="M2604 1434 c-18 -14 -18 -14 6 -3 31 14 36 19 24 19 -6 0 -19 -7 -30
-16z"/>
<path d="M2529 1409 c-12 -24 3 -50 16 -28 5 8 4 10 -3 5 -15 -9 -15 -1 -2 25
6 10 8 19 6 19 -3 0 -10 -9 -17 -21z"/>
<path d="M2630 1420 c0 -5 5 -10 10 -10 6 0 10 5 10 10 0 6 -4 10 -10 10 -5 0
-10 -4 -10 -10z"/>
<path d="M4513 1405 c0 -8 4 -12 9 -9 5 3 6 10 3 15 -9 13 -12 11 -12 -6z"/>
<path d="M2570 1405 c0 -8 29 -12 39 -5 9 5 4 8 -13 8 -14 0 -26 -2 -26 -3z"/>
<path d="M2636 1387 c3 -10 9 -15 12 -12 3 3 0 11 -7 18 -10 9 -11 8 -5 -6z"/>
<path d="M2560 1375 c-7 -9 -10 -18 -7 -22 4 -3 9 2 13 11 3 9 11 13 17 9 6
-3 7 -1 3 5 -9 15 -11 15 -26 -3z"/>
<path d="M2604 1379 c-5 -8 -3 -9 6 -4 10 6 12 3 8 -13 -7 -26 2 -34 22 -21
10 6 11 9 3 9 -7 0 -13 6 -13 14 0 20 -17 29 -26 15z"/>
<path d="M2510 1360 c0 -5 9 -14 20 -20 11 -6 20 -9 20 -8 0 2 -9 11 -20 21
-11 9 -20 13 -20 7z"/>
<path d="M4506 1340 c6 -8 10 -23 8 -33 -1 -11 0 -16 4 -13 12 13 10 36 -6 48
-15 11 -15 11 -6 -2z"/>
<path d="M2594 1319 c0 -10 4 -19 8 -19 4 0 8 6 8 14 0 8 -4 17 -8 20 -4 2 -8
-4 -8 -15z"/>
<path d="M2530 1310 c6 -11 13 -20 16 -20 2 0 0 9 -6 20 -6 11 -13 20 -16 20
-2 0 0 -9 6 -20z"/>
<path d="M2555 1321 c-3 -5 0 -13 6 -17 7 -4 9 -3 5 4 -3 5 0 13 6 15 9 4 10
6 1 6 -6 1 -14 -3 -18 -8z"/>
<path d="M2635 1320 c-7 -12 2 -30 16 -30 5 0 9 5 9 11 0 5 -4 7 -10 4 -5 -3
-10 -2 -10 4 0 5 6 12 13 14 9 4 9 6 0 6 -6 1 -15 -3 -18 -9z"/>
<path d="M2514 1298 c6 -20 -4 -23 -22 -8 -7 5 -5 2 3 -7 18 -21 40 -6 24 17
-9 13 -10 12 -5 -2z"/>
<path d="M2570 1282 c0 -5 7 -9 15 -9 8 0 12 4 9 9 -3 4 -9 8 -15 8 -5 0 -9
-4 -9 -8z"/>
<path d="M2626 1275 c10 -8 23 -15 28 -15 6 0 1 7 -10 15 -10 8 -23 15 -28 15
-6 0 -1 -7 10 -15z"/>
<path d="M575 1260 c3 -5 8 -10 11 -10 2 0 4 5 4 10 0 6 -5 10 -11 10 -5 0 -7
-4 -4 -10z"/>
<path d="M2542 1256 c10 -7 14 -17 10 -21 -4 -5 -1 -5 6 -1 19 11 14 23 -10
29 -21 5 -21 5 -6 -7z"/>
<path d="M2605 1259 c-4 -6 -4 -13 -1 -16 3 -4 6 -1 6 6 0 7 5 9 12 5 7 -4 8
-3 4 4 -9 15 -13 15 -21 1z"/>
<path d="M4514 1245 c0 -13 3 -22 7 -19 8 4 6 30 -2 38 -3 3 -5 -5 -5 -19z"/>
<path d="M2500 1246 c0 -2 9 -6 20 -9 11 -3 18 -1 14 4 -5 9 -34 13 -34 5z"/>
<path d="M2635 1240 c-19 -8 -19 -9 3 -9 12 -1 22 4 22 9 0 6 -1 10 -2 9 -2 0
-12 -4 -23 -9z"/>
<path d="M2490 1215 c-11 -13 -10 -14 4 -9 9 3 16 10 16 15 0 13 -6 11 -20 -6z"/>
<path d="M2590 1220 c0 -5 5 -10 10 -10 6 0 10 5 10 10 0 6 -4 10 -10 10 -5 0
-10 -4 -10 -10z"/>
<path d="M2516 1203 c-6 -14 -5 -15 5 -6 7 7 10 15 7 18 -3 3 -9 -2 -12 -12z"/>
<path d="M2552 1199 c-19 -7 -23 -29 -6 -29 3 0 2 5 -2 12 -5 7 -2 9 9 5 9 -3
18 0 21 9 3 8 4 14 3 13 -1 0 -12 -4 -25 -10z"/>
<path d="M2610 1200 c-8 -5 -10 -10 -5 -10 6 0 17 5 25 10 8 5 11 10 5 10 -5
0 -17 -5 -25 -10z"/>
<path d="M2630 1180 c0 -5 5 -10 10 -10 6 0 10 5 10 10 0 6 -4 10 -10 10 -5 0
-10 -4 -10 -10z"/>
<path d="M574 1158 c-3 -5 0 -7 8 -6 7 2 12 -4 10 -12 -2 -8 0 -11 4 -7 14 13
12 34 -3 34 -7 0 -16 -4 -19 -9z"/>
<path d="M2570 1159 c0 -4 10 -6 21 -4 32 6 34 13 4 13 -14 0 -25 -4 -25 -9z"/>
<path d="M4513 1155 c0 -8 4 -12 9 -9 5 3 6 10 3 15 -9 13 -12 11 -12 -6z"/>
<path d="M2550 1152 c0 -7 -5 -10 -12 -6 -7 4 -8 3 -4 -5 4 -6 12 -9 17 -6 5
4 9 1 9 -6 0 -7 3 -10 6 -6 3 3 1 14 -5 24 -6 11 -11 13 -11 5z"/>
<path d="M2633 1145 c0 -8 4 -15 9 -15 4 0 8 4 8 9 0 6 -4 12 -8 15 -5 3 -9
-1 -9 -9z"/>
<path d="M2610 1120 c8 -5 20 -10 25 -10 6 0 3 5 -5 10 -8 5 -19 10 -25 10 -5
0 -3 -5 5 -10z"/>
<path d="M4513 1115 c0 -8 4 -12 9 -9 4 3 8 9 8 15 0 5 -4 9 -8 9 -5 0 -9 -7
-9 -15z"/>
<path d="M596 1101 c-3 -5 2 -15 12 -22 15 -12 16 -12 5 2 -7 9 -10 19 -6 22
3 4 4 7 0 7 -3 0 -8 -4 -11 -9z"/>
<path d="M2508 1103 c6 -2 18 -2 25 0 6 3 1 5 -13 5 -14 0 -19 -2 -12 -5z"/>
<path d="M2591 1103 c0 -5 4 -17 9 -28 8 -17 8 -16 7 8 -1 15 -5 27 -9 27 -4
0 -8 -3 -7 -7z"/>
<path d="M2645 1100 c-3 -5 -1 -10 4 -10 6 0 11 5 11 10 0 6 -2 10 -4 10 -3 0
-8 -4 -11 -10z"/>
<path d="M2530 1075 c0 -8 2 -15 4 -15 2 0 6 7 10 15 3 8 1 15 -4 15 -6 0 -10
-7 -10 -15z"/>
<path d="M4520 1080 c-9 -6 -10 -10 -3 -10 6 0 15 5 18 10 8 12 4 12 -15 0z"/>
<path d="M4556 1073 c-6 -14 -5 -15 5 -6 7 7 10 15 7 18 -3 3 -9 -2 -12 -12z"/>
<path d="M2630 1069 c0 -5 5 -7 10 -4 6 3 10 8 10 11 0 2 -4 4 -10 4 -5 0 -10
-5 -10 -11z"/>
<path d="M2550 1059 c0 -5 5 -7 10 -4 6 3 10 8 10 11 0 2 -4 4 -10 4 -5 0 -10
-5 -10 -11z"/>
<path d="M2530 1040 c0 -5 5 -10 11 -10 5 0 7 5 4 10 -3 6 -8 10 -11 10 -2 0
-4 -4 -4 -10z"/>
<path d="M2593 1031 c16 -10 28 -22 27 -27 0 -5 6 -10 14 -12 9 -2 16 1 16 7
0 6 -7 7 -17 4 -10 -4 -14 -2 -10 4 6 10 -33 43 -50 43 -4 0 5 -9 20 -19z"/>
<path d="M2611 1046 c2 -2 15 -9 29 -15 24 -11 24 -11 6 3 -16 13 -49 24 -35
12z"/>
<path d="M575 1020 c3 -5 8 -10 11 -10 2 0 4 5 4 10 0 6 -5 10 -11 10 -5 0 -7
-4 -4 -10z"/>
<path d="M2515 1020 c3 -6 1 -10 -6 -10 -7 0 -10 -3 -6 -6 3 -3 13 -2 22 4 16
8 16 9 1 15 -10 4 -15 3 -11 -3z"/>
<path d="M2565 1022 c-5 -4 -11 -14 -13 -22 -2 -12 1 -11 11 2 8 10 18 14 22
10 5 -4 5 -1 1 6 -8 14 -8 14 -21 4z"/>
<path d="M2593 985 c0 -8 4 -15 9 -15 4 0 8 4 8 9 0 6 -4 12 -8 15 -5 3 -9 -1
-9 -9z"/>
<path d="M596 962 c-3 -5 1 -9 9 -9 8 0 12 4 9 9 -3 4 -7 8 -9 8 -2 0 -6 -4
-9 -8z"/>
<path d="M2530 955 c0 -8 2 -15 4 -15 2 0 6 7 10 15 3 8 1 15 -4 15 -6 0 -10
-7 -10 -15z"/>
<path d="M2604 954 c-18 -14 -18 -14 6 -3 31 14 36 19 24 19 -6 0 -19 -7 -30
-16z"/>
<path d="M2550 939 c0 -5 5 -7 10 -4 6 3 10 8 10 11 0 2 -4 4 -10 4 -5 0 -10
-5 -10 -11z"/>
<path d="M2630 940 c0 -5 5 -10 10 -10 6 0 10 5 10 10 0 6 -4 10 -10 10 -5 0
-10 -4 -10 -10z"/>
<path d="M4514 925 c0 -13 3 -22 7 -19 8 4 6 30 -2 38 -3 3 -5 -5 -5 -19z"/>
<path d="M550 919 c0 -5 5 -7 10 -4 6 3 10 8 10 11 0 2 -4 4 -10 4 -5 0 -10
-5 -10 -11z"/>
<path d="M2570 919 c0 -4 10 -6 21 -4 32 6 34 13 4 13 -14 0 -25 -4 -25 -9z"/>
<path d="M2641 903 c7 -12 15 -20 18 -17 3 2 -3 12 -13 22 -17 16 -18 16 -5
-5z"/>
<path d="M2615 886 c1 -14 5 -29 10 -33 4 -5 5 -3 2 4 -4 6 -2 13 3 15 7 2 6
10 -3 21 -12 17 -13 16 -12 -7z"/>
<path d="M2548 893 c6 -2 10 -8 8 -12 -3 -4 1 -8 8 -8 8 0 12 6 9 14 -3 7 -13
13 -22 12 -10 0 -11 -2 -3 -6z"/>
<path d="M4496 867 c3 -10 9 -15 12 -12 3 3 0 11 -7 18 -10 9 -11 8 -5 -6z"/>
<path d="M594 848 c0 -10 1 -18 3 -18 1 0 7 8 12 18 7 13 6 19 -2 19 -7 0 -13
-9 -13 -19z"/>
<path d="M2525 860 c-3 -5 -1 -18 5 -27 9 -15 10 -14 4 6 -4 17 -3 21 6 16 9
-5 11 -4 6 3 -9 15 -13 15 -21 2z"/>
<path d="M2590 861 c0 -6 4 -13 10 -16 6 -3 7 1 4 9 -7 18 -14 21 -14 7z"/>
<path d="M4526 858 c3 -5 10 -6 15 -3 13 9 11 12 -6 12 -8 0 -12 -4 -9 -9z"/>
<path d="M2634 835 c-4 -8 -11 -12 -17 -8 -6 3 -7 1 -3 -5 9 -15 9 -15 29 8 9
11 12 20 7 20 -6 0 -13 -7 -16 -15z"/>
<path d="M2557 833 c-13 -12 -7 -23 11 -22 10 0 12 3 4 6 -6 2 -10 9 -6 14 6
10 0 12 -9 2z"/>
<path d="M4506 819 c2 -4 13 -7 24 -6 23 2 17 10 -10 12 -10 1 -17 -2 -14 -6z"/>
<path d="M2635 801 c-3 -5 -2 -12 3 -15 5 -3 9 1 9 9 0 17 -3 19 -12 6z"/>
<path d="M576 782 c-3 -5 1 -9 9 -9 8 0 12 4 9 9 -3 4 -7 8 -9 8 -2 0 -6 -4
-9 -8z"/>
<path d="M2510 785 c0 -5 5 -17 10 -25 5 -8 10 -10 10 -5 0 6 -5 17 -10 25 -5
8 -10 11 -10 5z"/>
<path d="M2588 783 c6 -3 10 -9 7 -13 -3 -5 0 -12 7 -16 7 -4 10 -4 6 1 -4 4
-4 13 2 19 6 8 2 12 -13 13 -12 0 -16 -1 -9 -4z"/>
<path d="M4536 782 c-3 -5 1 -9 9 -9 8 0 12 4 9 9 -3 4 -7 8 -9 8 -2 0 -6 -4
-9 -8z"/>
<path d="M2560 766 c0 -2 8 -10 18 -17 15 -13 16 -12 3 4 -13 16 -21 21 -21
13z"/>
<path d="M2626 742 c-3 -5 1 -9 9 -9 8 0 15 4 15 9 0 4 -4 8 -9 8 -6 0 -12 -4
-15 -8z"/>
<path d="M2559 718 c-5 -18 -6 -38 -1 -34 7 8 12 36 6 36 -2 0 -4 -1 -5 -2z"/>
<path d="M615 680 c-3 -5 -1 -10 4 -10 6 0 11 5 11 10 0 6 -2 10 -4 10 -3 0
-8 -4 -11 -10z"/>
<path d="M2466 678 c3 -5 10 -6 15 -3 13 9 11 12 -6 12 -8 0 -12 -4 -9 -9z"/>
<path d="M2505 680 c-3 -6 1 -7 9 -4 18 7 21 14 7 14 -6 0 -13 -4 -16 -10z"/>
<path d="M590 640 c0 -5 5 -10 11 -10 5 0 7 5 4 10 -3 6 -8 10 -11 10 -2 0 -4
-4 -4 -10z"/>
<path d="M1050 630 c0 -6 -4 -9 -9 -6 -5 3 -11 -1 -15 -9 -5 -15 11 -31 21
-21 4 3 0 6 -8 6 -8 1 -3 7 10 14 15 8 20 16 12 20 -6 4 -11 2 -11 -4z"/>
<path d="M1092 624 c10 -10 20 -15 24 -12 3 4 -5 12 -18 18 -22 12 -22 12 -6
-6z"/>
<path d="M1256 631 c-6 -10 -2 -12 22 -10 4 0 10 -10 14 -23 l7 -23 -2 23 c-1
12 -6 22 -11 22 -5 -1 -12 4 -16 10 -5 9 -9 9 -14 1z"/>
<path d="M1317 633 c-4 -3 -7 -11 -7 -17 0 -6 5 -5 12 2 6 6 9 14 7 17 -3 3
-9 2 -12 -2z"/>
<path d="M1425 608 c-12 -26 -13 -29 -1 -15 9 12 16 14 21 8 3 -6 12 -11 18
-11 7 0 4 5 -5 11 -10 5 -15 16 -12 24 11 29 -6 15 -21 -17z"/>
<path d="M1594 625 c3 -8 -2 -19 -12 -24 -9 -6 -12 -11 -5 -11 6 0 15 5 18 10
4 6 11 7 17 4 6 -4 6 2 -1 15 -13 24 -26 29 -17 6z"/>
<path d="M1627 625 c3 -8 10 -12 15 -9 6 4 8 -1 4 -14 -4 -11 -2 -23 3 -27 7
-4 8 1 4 11 -5 12 -3 15 6 9 10 -6 11 -3 2 13 -13 24 -43 38 -34 17z"/>
<path d="M1830 630 c0 -5 5 -10 11 -10 5 0 7 5 4 10 -3 6 -8 10 -11 10 -2 0
-4 -4 -4 -10z"/>
<path d="M1866 627 c3 -10 9 -15 12 -12 3 3 0 11 -7 18 -10 9 -11 8 -5 -6z"/>
<path d="M2096 625 c3 -8 11 -12 17 -8 6 4 8 0 4 -11 -4 -10 -3 -15 3 -11 16
10 12 23 -10 35 -16 9 -18 8 -14 -5z"/>
<path d="M2176 625 c3 -8 11 -12 17 -8 6 4 8 0 4 -9 -6 -17 16 -19 30 -3 4 4
2 5 -4 1 -7 -4 -13 -3 -13 3 0 6 -9 15 -20 21 -16 9 -18 8 -14 -5z"/>
<path d="M2260 625 c-9 -11 -9 -15 -1 -15 6 0 11 5 11 10 0 7 6 7 20 0 11 -6
20 -8 20 -6 0 3 -9 10 -19 15 -14 8 -22 7 -31 -4z"/>
<path d="M775 620 c6 -10 4 -12 -8 -7 -21 8 -22 3 -3 -12 10 -9 15 -8 19 3 4
9 1 18 -5 22 -7 5 -8 2 -3 -6z"/>
<path d="M810 608 c-10 -20 -10 -21 3 -6 13 16 15 16 32 0 19 -17 19 -17 1 6
-11 12 -20 22 -22 22 -2 0 -8 -10 -14 -22z"/>
<path d="M2450 620 c0 -5 5 -10 11 -10 5 0 7 5 4 10 -3 6 -8 10 -11 10 -2 0
-4 -4 -4 -10z"/>
<path d="M926 603 c-6 -14 -5 -15 5 -6 7 7 10 15 7 18 -3 3 -9 -2 -12 -12z"/>
<path d="M950 616 c0 -2 9 -6 20 -9 11 -3 18 -1 14 4 -5 9 -34 13 -34 5z"/>
<path d="M1343 613 c-18 -7 -16 -20 2 -20 8 0 12 4 9 8 -2 4 2 10 8 12 7 3 9
5 3 5 -5 0 -16 -2 -22 -5z"/>
<path d="M1377 606 c-5 -12 -3 -15 5 -10 8 5 9 1 4 -12 -5 -14 -4 -16 4 -7 8
7 9 17 3 28 -9 16 -10 16 -16 1z"/>
<path d="M1520 610 c-8 -5 -10 -10 -5 -10 6 0 17 5 25 10 8 5 11 10 5 10 -5 0
-17 -5 -25 -10z"/>
<path d="M1886 603 c-6 -14 -5 -15 5 -6 7 7 10 15 7 18 -3 3 -9 -2 -12 -12z"/>
<path d="M1950 611 c0 -6 4 -13 10 -16 6 -3 7 1 4 9 -7 18 -14 21 -14 7z"/>
<path d="M1990 611 c0 -6 4 -13 10 -16 6 -3 7 1 4 9 -7 18 -14 21 -14 7z"/>
<path d="M2316 603 c-6 -14 -5 -15 5 -6 7 7 10 15 7 18 -3 3 -9 -2 -12 -12z"/>
<path d="M2742 604 c10 -10 20 -16 22 -13 3 3 -5 11 -17 18 -21 13 -21 12 -5
-5z"/>
<path d="M2780 616 c0 -2 7 -7 16 -10 8 -3 12 -2 9 4 -6 10 -25 14 -25 6z"/>
<path d="M2820 611 c0 -6 4 -13 10 -16 6 -3 7 1 4 9 -7 18 -14 21 -14 7z"/>
<path d="M2870 609 c-12 -8 -10 -9 9 -4 16 5 21 4 17 -4 -4 -6 -2 -11 4 -11
13 0 8 22 -6 27 -5 1 -16 -2 -24 -8z"/>
<path d="M3133 608 c-13 -6 -23 -15 -23 -20 0 -5 12 -1 26 9 25 16 27 16 40
-2 8 -10 14 -14 14 -9 0 11 -21 34 -29 33 -4 0 -16 -5 -28 -11z"/>
<path d="M3325 603 c12 -14 17 -15 27 -4 11 11 10 13 -3 8 -9 -3 -22 -1 -28 4
-6 5 -4 1 4 -8z"/>
<path d="M3440 610 c-8 -5 -11 -12 -7 -17 5 -4 12 -1 17 7 7 11 11 11 24 1 9
-8 16 -9 16 -3 0 5 -7 13 -16 16 -19 7 -16 8 -34 -4z"/>
<path d="M3554 606 c-4 -9 -4 -20 0 -23 3 -4 6 2 6 12 0 10 3 15 8 11 4 -4 7
-12 7 -17 0 -5 4 -9 9 -8 5 0 13 -5 17 -13 5 -7 9 -8 9 -2 0 6 -11 21 -25 34
-22 21 -25 21 -31 6z"/>
<path d="M3961 612 c-1 -8 -6 -10 -13 -6 -10 5 -10 4 -1 -6 15 -16 28 -8 20
12 -4 11 -6 11 -6 0z"/>
<path d="M4037 607 c-3 -8 -2 -20 3 -26 5 -9 8 -4 8 13 0 29 -3 32 -11 13z"/>
<path d="M4196 605 c-3 -8 -1 -15 4 -15 6 0 10 7 10 15 0 8 -2 15 -4 15 -2 0
-6 -7 -10 -15z"/>
<path d="M4230 610 c0 -5 5 -10 10 -10 6 0 10 5 10 10 0 6 -4 10 -10 10 -5 0
-10 -4 -10 -10z"/>
<path d="M4270 605 c0 -8 4 -15 10 -15 5 0 7 7 4 15 -4 8 -8 15 -10 15 -2 0
-4 -7 -4 -15z"/>
<path d="M1068 603 c7 -3 16 -2 19 1 4 3 -2 6 -13 5 -11 0 -14 -3 -6 -6z"/>
<path d="M1144 598 c-4 -7 -3 -8 5 -4 6 4 20 2 29 -6 15 -12 16 -11 3 5 -16
20 -27 22 -37 5z"/>
<path d="M1230 602 c0 -5 7 -9 15 -9 8 0 15 4 15 9 0 4 -7 8 -15 8 -8 0 -15
-4 -15 -8z"/>
<path d="M1685 600 c-3 -6 1 -7 9 -4 18 7 21 14 7 14 -6 0 -13 -4 -16 -10z"/>
<path d="M1826 601 c-4 -5 3 -7 14 -4 23 6 26 13 6 13 -8 0 -17 -4 -20 -9z"/>
<path d="M2950 602 c0 -5 12 -14 28 -21 l27 -13 -22 21 c-24 23 -33 26 -33 13z"/>
<path d="M3695 599 c-11 -16 -1 -19 13 -3 7 8 8 14 3 14 -5 0 -13 -5 -16 -11z"/>
<path d="M4379 593 c-13 -16 -12 -17 4 -4 16 13 21 21 13 21 -2 0 -10 -8 -17
-17z"/>
<path d="M1116 591 c-3 -5 1 -11 9 -14 9 -4 12 -1 8 9 -6 16 -10 17 -17 5z"/>
<path d="M1480 596 c0 -2 7 -7 16 -10 8 -3 12 -2 9 4 -6 10 -25 14 -25 6z"/>
<path d="M1788 593 c7 -3 16 -2 19 1 4 3 -2 6 -13 5 -11 0 -14 -3 -6 -6z"/>
<path d="M1907 587 c-3 -8 1 -14 9 -14 7 0 10 5 7 10 -4 6 1 8 11 4 10 -4 15
-3 11 3 -9 14 -32 12 -38 -3z"/>
<path d="M988 583 c7 -3 16 -2 19 1 4 3 -2 6 -13 5 -11 0 -14 -3 -6 -6z"/>
<path d="M1056 582 c-2 -4 -1 -14 4 -22 7 -11 9 -9 7 8 -1 24 -3 26 -11 14z"/>
<path d="M1313 575 c0 -8 4 -12 9 -9 5 3 6 10 3 15 -9 13 -12 11 -12 -6z"/>
<path d="M1708 583 c7 -3 16 -2 19 1 4 3 -2 6 -13 5 -11 0 -14 -3 -6 -6z"/>
<path d="M1979 588 c-5 -18 -6 -38 -1 -34 7 8 12 36 6 36 -2 0 -4 -1 -5 -2z"/>
<path d="M2935 580 c6 -9 4 -12 -7 -8 -8 4 -15 1 -15 -7 0 -8 7 -11 15 -7 11
4 13 1 7 -9 -5 -8 -4 -11 0 -6 13 12 15 36 3 44 -7 4 -8 1 -3 -7z"/>
<path d="M3015 581 c-3 -5 0 -13 6 -17 7 -4 9 -3 5 4 -3 5 0 13 6 15 9 4 10 6
1 6 -6 1 -14 -3 -18 -8z"/>
<path d="M3139 588 c-7 -23 -4 -35 7 -35 11 0 11 3 1 16 -10 12 -9 14 6 8 9
-3 17 -2 17 3 0 8 -28 15 -31 8z"/>
<path d="M3450 571 c-7 -15 -7 -19 5 -17 8 1 18 6 22 11 5 4 2 5 -6 0 -11 -6
-13 -4 -8 8 9 23 0 21 -13 -2z"/>
<path d="M3495 581 c-3 -5 0 -13 6 -17 7 -4 9 -3 5 4 -3 5 0 13 6 15 9 4 10 6
1 6 -6 1 -14 -3 -18 -8z"/>
<path d="M3710 581 c0 -6 7 -8 15 -5 11 5 13 2 9 -10 -3 -9 -2 -16 4 -16 17 0
6 35 -11 38 -10 2 -17 -1 -17 -7z"/>
<path d="M3854 582 c3 -5 0 -13 -6 -15 -9 -4 -10 -6 -1 -6 17 -1 25 16 12 25
-7 4 -9 3 -5 -4z"/>
<path d="M3936 576 c5 -13 4 -17 -4 -12 -6 3 -14 1 -18 -5 -4 -8 -3 -9 4 -5 7
4 12 1 12 -6 0 -8 5 -5 11 5 8 14 8 22 -1 30 -8 9 -9 7 -4 -7z"/>
<path d="M3970 569 c-10 -21 -9 -22 3 -7 10 13 16 15 25 6 9 -9 15 -9 23 -1 8
8 7 13 -2 18 -8 5 -10 4 -5 -3 9 -15 -6 -16 -21 -1 -8 8 -14 5 -23 -12z"/>
<path d="M4093 583 c4 -6 0 -13 -8 -16 -8 -4 -12 -15 -10 -28 6 -31 16 -38 12
-8 -2 13 2 29 11 35 12 9 12 13 2 19 -8 5 -11 4 -7 -2z"/>
<path d="M4173 583 c4 -3 -1 -12 -11 -20 -15 -13 -15 -13 6 -3 19 9 23 30 5
30 -4 0 -3 -3 0 -7z"/>
<path d="M4215 579 c-4 -6 -4 -13 -1 -16 3 -4 6 -1 6 6 0 7 5 9 12 5 7 -4 8
-3 4 4 -9 15 -13 15 -21 1z"/>
<path d="M4406 578 c3 -5 10 -6 15 -3 13 9 11 12 -6 12 -8 0 -12 -4 -9 -9z"/>
<path d="M1015 569 c-4 -6 -5 -12 -2 -15 2 -3 7 2 10 11 7 17 1 20 -8 4z"/>
<path d="M1593 565 c0 -8 4 -15 9 -15 4 0 8 4 8 9 0 6 -4 12 -8 15 -5 3 -9 -1
-9 -9z"/>
<path d="M2050 576 c0 -2 8 -10 18 -17 15 -13 16 -12 3 4 -13 16 -21 21 -21
13z"/>
<path d="M2222 565 c15 -16 20 -17 30 -6 11 11 10 13 0 7 -7 -4 -21 -2 -30 5
-15 12 -15 11 0 -6z"/>
<path d="M3270 569 c0 -5 5 -7 10 -4 6 3 10 8 10 11 0 2 -4 4 -10 4 -5 0 -10
-5 -10 -11z"/>
<path d="M3308 573 c6 -2 18 -2 25 0 6 3 1 5 -13 5 -14 0 -19 -2 -12 -5z"/>
<path d="M3404 564 c9 -6 14 -14 11 -17 -3 -4 -2 -5 2 -2 15 12 10 31 -9 31
-17 0 -17 -2 -4 -12z"/>
<path d="M3637 569 c7 -7 15 -10 18 -7 3 3 -2 9 -12 12 -14 6 -15 5 -6 -5z"/>
<path d="M3674 555 c0 -13 3 -22 7 -19 8 4 6 30 -2 38 -3 3 -5 -5 -5 -19z"/>
<path d="M886 558 c3 -5 10 -6 15 -3 13 9 11 12 -6 12 -8 0 -12 -4 -9 -9z"/>
<path d="M1097 555 c-4 -8 -3 -16 1 -19 4 -3 9 4 9 15 2 23 -3 25 -10 4z"/>
<path d="M1416 558 c3 -5 10 -6 15 -3 13 9 11 12 -6 12 -8 0 -12 -4 -9 -9z"/>
<path d="M1627 559 c7 -7 15 -10 18 -7 3 3 -2 9 -12 12 -14 6 -15 5 -6 -5z"/>
<path d="M2006 558 c3 -5 10 -6 15 -3 13 9 11 12 -6 12 -8 0 -12 -4 -9 -9z"/>
<path d="M2966 562 c-3 -5 1 -9 9 -9 8 0 12 4 9 9 -3 4 -7 8 -9 8 -2 0 -6 -4
-9 -8z"/>
<path d="M3076 553 c-6 -14 -5 -15 5 -6 7 7 10 15 7 18 -3 3 -9 -2 -12 -12z"/>
<path d="M3175 561 c-3 -5 -2 -12 3 -15 5 -3 9 1 9 9 0 17 -3 19 -12 6z"/>
<path d="M3526 559 c4 -8 30 -6 38 2 3 3 -5 5 -19 5 -13 0 -22 -3 -19 -7z"/>
<path d="M3766 562 c-3 -5 1 -9 9 -9 8 0 15 4 15 9 0 4 -4 8 -9 8 -6 0 -12 -4
-15 -8z"/>
<path d="M855 551 c-3 -5 -2 -12 3 -15 5 -3 9 1 9 9 0 17 -3 19 -12 6z"/>
<path d="M1530 539 c0 -5 5 -7 10 -4 6 3 10 8 10 11 0 2 -4 4 -10 4 -5 0 -10
-5 -10 -11z"/>
<path d="M1695 540 c3 -5 8 -10 11 -10 2 0 4 5 4 10 0 6 -5 10 -11 10 -5 0 -7
-4 -4 -10z"/>
<path d="M1730 539 c0 -5 5 -7 10 -4 6 3 10 8 10 11 0 2 -4 4 -10 4 -5 0 -10
-5 -10 -11z"/>
<path d="M2810 540 c0 -5 5 -10 11 -10 5 0 7 5 4 10 -3 6 -8 10 -11 10 -2 0
-4 -4 -4 -10z"/>
<path d="M3033 533 c0 -9 4 -10 14 -2 7 6 13 12 13 14 0 1 -6 2 -13 2 -8 0
-14 -6 -14 -14z"/>
<path d="M1196 527 c3 -10 9 -15 12 -12 3 3 0 11 -7 18 -10 9 -11 8 -5 -6z"/>
<path d="M3330 519 c0 -5 5 -7 10 -4 6 3 10 8 10 11 0 2 -4 4 -10 4 -5 0 -10
-5 -10 -11z"/>
<path d="M3535 520 c3 -5 8 -10 11 -10 2 0 4 5 4 10 0 6 -5 10 -11 10 -5 0 -7
-4 -4 -10z"/>
<path d="M3715 520 c-3 -5 -1 -10 4 -10 6 0 11 5 11 10 0 6 -2 10 -4 10 -3 0
-8 -4 -11 -10z"/>
<path d="M4116 518 c3 -5 10 -6 15 -3 13 9 11 12 -6 12 -8 0 -12 -4 -9 -9z"/>
</g>
</svg>
