<?xml version="1.0" standalone="no"?>
<!DOCTYPE svg PUBLIC "-//W3C//DTD SVG 20010904//EN"
 "http://www.w3.org/TR/2001/REC-SVG-20010904/DTD/svg10.dtd">
<svg version="1.0" xmlns="http://www.w3.org/2000/svg"
 width="16.000000pt" height="16.000000pt" viewBox="0 0 16.000000 16.000000"
 preserveAspectRatio="xMidYMid meet">
<metadata>
Created by potrace 1.11, written by Peter Selinger 2001-2013
</metadata>
<g transform="translate(0.000000,16.000000) scale(0.000320,-0.000320)"
fill="#000000" stroke="none">
<path d="M26105 36443 c-228 -9 -437 -40 -880 -130 -176 -35 -473 -89 -660
-119 -683 -110 -722 -120 -1365 -379 -430 -173 -546 -224 -820 -362 -397 -199
-700 -382 -1011 -612 -90 -67 -230 -170 -311 -229 -357 -262 -552 -414 -716
-561 -309 -276 -384 -367 -453 -546 -121 -311 -51 -547 275 -935 215 -255 258
-308 384 -475 193 -254 344 -435 647 -775 177 -199 458 -543 660 -810 220
-290 280 -363 386 -466 155 -149 341 -250 542 -294 88 -19 262 -28 386 -19
258 18 476 70 931 223 386 131 463 153 750 221 315 74 403 101 735 225 382
142 461 167 775 240 338 80 413 101 765 215 160 52 398 125 530 164 132 38
355 106 495 152 443 142 622 179 876 179 225 0 360 -27 604 -120 69 -26 203
-78 298 -114 96 -36 271 -93 390 -125 315 -86 470 -149 670 -269 241 -146 424
-368 477 -577 48 -192 -32 -378 -216 -500 -55 -37 -111 -60 -282 -116 -238
-78 -413 -158 -545 -248 -173 -118 -433 -374 -682 -671 -179 -214 -214 -269
-369 -590 -115 -237 -215 -372 -462 -626 -193 -197 -291 -317 -429 -524 -35
-52 -105 -154 -157 -227 -51 -73 -137 -201 -191 -285 -54 -84 -136 -205 -183
-268 -81 -111 -157 -226 -522 -793 -93 -144 -204 -311 -247 -372 -202 -285
-309 -511 -356 -752 -26 -127 -26 -409 -1 -518 45 -191 148 -469 277 -745 119
-254 314 -755 355 -910 19 -75 51 -229 70 -344 53 -314 75 -384 171 -527 103
-153 239 -262 437 -352 192 -86 341 -197 393 -290 26 -47 29 -61 29 -142 0
-79 -4 -97 -28 -148 -49 -99 -96 -146 -263 -267 -87 -63 -191 -146 -230 -186
-94 -93 -147 -201 -209 -419 -58 -204 -88 -286 -124 -339 -38 -54 -114 -124
-154 -141 -82 -33 -211 -26 -306 18 -65 30 -169 138 -213 223 -46 88 -64 161
-77 327 -14 164 -40 266 -100 392 -82 170 -186 288 -344 385 -120 75 -378 199
-562 270 -88 35 -234 93 -325 130 -311 128 -474 170 -652 170 -169 0 -297 -43
-452 -150 -209 -144 -440 -455 -996 -1335 -219 -348 -251 -395 -489 -735 -269
-385 -346 -503 -545 -832 -229 -378 -308 -489 -525 -737 -268 -305 -292 -665
-60 -891 140 -137 282 -221 646 -384 363 -162 553 -230 873 -313 118 -30 339
-93 490 -140 552 -170 795 -216 1390 -268 632 -54 1535 -39 2156 35 416 50
622 104 1209 312 653 232 1324 524 1695 738 253 146 656 422 835 572 304 255
426 359 505 433 49 46 160 145 247 221 232 203 597 571 774 783 283 337 619
764 788 999 69 97 168 233 218 302 234 322 509 822 803 1461 67 145 177 379
245 519 80 166 143 312 180 418 31 90 108 295 171 455 64 161 133 344 154 407
56 172 146 576 280 1265 27 138 58 293 70 345 55 244 67 355 110 1000 6 85 18
232 26 325 20 207 15 379 -21 695 -32 279 -41 574 -26 775 20 256 25 503 12
657 -21 242 -50 378 -152 718 -72 238 -143 520 -179 710 -74 389 -96 452 -368
1025 -44 94 -115 254 -156 357 -138 344 -240 548 -472 953 -44 77 -127 226
-184 330 -245 453 -391 675 -831 1260 -182 243 -406 486 -721 783 -500 472
-746 678 -1196 1000 -384 275 -994 633 -1337 785 -108 48 -737 287 -980 372
-82 29 -213 69 -290 88 -126 32 -712 150 -1195 241 -550 103 -1099 148 -1565
129z"/>
</g>
</svg>
